<mxfile host="Electron" modified="2023-06-06T14:21:11.755Z" agent="Mozilla/5.0 (X11; Linux x86_64) AppleWebKit/537.36 (KHTML, like Gecko) draw.io/21.1.2 Chrome/106.0.5249.199 Electron/21.4.3 Safari/537.36" etag="-sTKRhvY2GPOjcd-04Dd" version="21.1.2" type="device">
  <diagram id="jJuYd63QwXQH7oOUTKzg" name="ページ1">
    <mxGraphModel dx="2331" dy="923" grid="1" gridSize="10" guides="1" tooltips="1" connect="1" arrows="1" fold="1" page="1" pageScale="1" pageWidth="827" pageHeight="1169" math="0" shadow="0">
      <root>
        <mxCell id="0" />
        <mxCell id="1" parent="0" />
        <mxCell id="m9YZgxOKDFD2zi5w1zmE-62" value="API gateway first project" style="sketch=0;points=[[0,0,0],[0.25,0,0],[0.5,0,0],[0.75,0,0],[1,0,0],[1,0.25,0],[1,0.5,0],[1,0.75,0],[1,1,0],[0.75,1,0],[0.5,1,0],[0.25,1,0],[0,1,0],[0,0.75,0],[0,0.5,0],[0,0.25,0]];rounded=1;absoluteArcSize=1;arcSize=2;html=1;strokeColor=none;gradientColor=none;shadow=0;dashed=0;fontSize=12;fontColor=#9E9E9E;align=left;verticalAlign=top;spacing=10;spacingTop=-4;whiteSpace=wrap;" parent="1" vertex="1">
          <mxGeometry x="-780" y="10" width="1130" height="390" as="geometry" />
        </mxCell>
        <mxCell id="m9YZgxOKDFD2zi5w1zmE-2" value="&lt;b&gt;Google &lt;/b&gt;Cloud Platform" style="fillColor=#F6F6F6;strokeColor=none;shadow=0;gradientColor=none;fontSize=14;align=left;spacing=10;fontColor=#717171;9E9E9E;verticalAlign=top;spacingTop=-4;fontStyle=0;spacingLeft=40;html=1;whiteSpace=wrap;container=0;" parent="1" vertex="1">
          <mxGeometry x="-610" y="70" width="930" height="310" as="geometry" />
        </mxCell>
        <mxCell id="m9YZgxOKDFD2zi5w1zmE-8" value="Desktop and Mobile" style="strokeColor=#dddddd;shadow=1;strokeWidth=1;rounded=1;absoluteArcSize=1;arcSize=2;labelPosition=center;verticalLabelPosition=middle;align=center;verticalAlign=bottom;spacingLeft=0;fontColor=#999999;fontSize=12;whiteSpace=wrap;spacingBottom=2;html=1;" parent="1" vertex="1">
          <mxGeometry x="-750" y="250" width="70" height="100" as="geometry" />
        </mxCell>
        <mxCell id="m9YZgxOKDFD2zi5w1zmE-9" value="" style="sketch=0;dashed=0;connectable=0;html=1;fillColor=#757575;strokeColor=none;shape=mxgraph.gcp2.desktop_and_mobile;part=1;" parent="m9YZgxOKDFD2zi5w1zmE-8" vertex="1">
          <mxGeometry x="0.5" width="50" height="33" relative="1" as="geometry">
            <mxPoint x="-25" y="18.5" as="offset" />
          </mxGeometry>
        </mxCell>
        <mxCell id="m9YZgxOKDFD2zi5w1zmE-12" value="" style="edgeStyle=orthogonalEdgeStyle;fontSize=12;html=1;endArrow=blockThin;endFill=1;rounded=0;strokeWidth=2;endSize=4;startSize=4;dashed=0;strokeColor=#4284F3;entryX=0;entryY=0.5;entryDx=0;entryDy=0;exitX=1;exitY=0.5;exitDx=0;exitDy=0;" parent="1" source="m9YZgxOKDFD2zi5w1zmE-8" target="m9YZgxOKDFD2zi5w1zmE-10" edge="1">
          <mxGeometry width="100" relative="1" as="geometry">
            <mxPoint x="-890" y="120" as="sourcePoint" />
            <mxPoint x="-790" y="120" as="targetPoint" />
          </mxGeometry>
        </mxCell>
        <mxCell id="m9YZgxOKDFD2zi5w1zmE-3" value="" style="shape=mxgraph.gcp2.google_cloud_platform;fillColor=#F6F6F6;strokeColor=none;shadow=0;gradientColor=none;" parent="1" vertex="1">
          <mxGeometry x="-590" y="80" width="23" height="20" as="geometry">
            <mxPoint x="20" y="10" as="offset" />
          </mxGeometry>
        </mxCell>
        <mxCell id="m9YZgxOKDFD2zi5w1zmE-10" value="" style="strokeColor=#dddddd;shadow=1;strokeWidth=1;rounded=1;absoluteArcSize=1;arcSize=2;" parent="1" vertex="1">
          <mxGeometry x="-550" y="270" width="140" height="60" as="geometry" />
        </mxCell>
        <mxCell id="m9YZgxOKDFD2zi5w1zmE-11" value="&lt;font color=&quot;#000000&quot;&gt;Frontend&lt;/font&gt;&lt;br&gt;Firebase Hosting" style="sketch=0;dashed=0;connectable=0;html=1;fillColor=#5184F3;strokeColor=none;shape=mxgraph.gcp2.firebase;part=1;labelPosition=right;verticalLabelPosition=middle;align=left;verticalAlign=middle;spacingLeft=5;fontColor=#999999;fontSize=12;" parent="m9YZgxOKDFD2zi5w1zmE-10" vertex="1">
          <mxGeometry width="32.4" height="45" relative="1" as="geometry">
            <mxPoint x="5" y="7" as="offset" />
          </mxGeometry>
        </mxCell>
        <mxCell id="m9YZgxOKDFD2zi5w1zmE-19" value="" style="group" parent="1" vertex="1" connectable="0">
          <mxGeometry x="-230" y="270" width="140" height="60" as="geometry" />
        </mxCell>
        <mxCell id="m9YZgxOKDFD2zi5w1zmE-16" value="API Gateway" style="strokeColor=#dddddd;shadow=1;strokeWidth=1;rounded=1;absoluteArcSize=1;arcSize=2;align=right;fontColor=#5E5E5E;" parent="m9YZgxOKDFD2zi5w1zmE-19" vertex="1">
          <mxGeometry width="140" height="60" as="geometry" />
        </mxCell>
        <mxCell id="m9YZgxOKDFD2zi5w1zmE-18" value="" style="shape=image;verticalLabelPosition=bottom;labelBackgroundColor=default;verticalAlign=top;aspect=fixed;imageAspect=0;image=data:image/svg+xml,PHN2ZyB4bWxuczp4bGluaz0iaHR0cDovL3d3dy53My5vcmcvMTk5OS94bGluayIgeG1sbnM9Imh0dHA6Ly93d3cudzMub3JnLzIwMDAvc3ZnIiB2ZXJzaW9uPSIxLjEiIHZpZXdCb3g9IjAgMCAyNCAyNCIgaGVpZ2h0PSIyNHB4IiB3aWR0aD0iMjRweCI+JiN4YTsgICAgPGcgZmlsbC1ydWxlPSJldmVub2RkIiBmaWxsPSJub25lIiBzdHJva2Utd2lkdGg9IjEiIHN0cm9rZT0ibm9uZSI+JiN4YTsgICAgICAgIDxnIGZpbGw9IiM0Mjg1RjQiIHRyYW5zZm9ybT0idHJhbnNsYXRlKDIuMDAwMDAwLCAyLjAwMDAwMCkiPiYjeGE7ICAgICAgICAgICAgPHBhdGggZD0iTTEwLjM0NjQ5NCwzLjc0ODExMjkzZS0xMyBDMTEuMDU1ODkxOSwzLjc0ODExMjkzZS0xMyAxMS42NTYxMDAxLDAuMzkzMjU3MjkzIDEyLjE0NjM3MDMsMS4wNTcyMjI5NyBDMTIuNTQ1NzU0LDEuNTk4MTAyNDEgMTIuODkwNjg0NCwyLjM0NDI0MDE1IDEzLjE3NjY1NzUsMy4yNTk4OTQ1NSBDMTMuNzM4OTM3Myw1LjA2MDI1MjYgMTQuMDU2NjAzOCw3LjQ2NTAyNTExIDE0LjA1NjYwMzgsMTAuMDIzNTg0OSBDMTQuMDU2NjAzOCwxMi41ODIxNDQ3IDEzLjczODkzNzMsMTQuOTg2OTE3MiAxMy4xNzY2NTc1LDE2Ljc4NzI3NTMgQzEyLjg5MDY4NDQsMTcuNzAyOTI5NyAxMi41NDU3NTQsMTguNDQ5MDY3NCAxMi4xNDYzNzAzLDE4Ljk4OTk0NjggQzExLjY1NjEwMDEsMTkuNjUzOTEyNSAxMS4wNTU4OTE5LDIwLjA0NzE2OTggMTAuMzQ2NDk0LDIwLjA0NzE2OTggQzguNzIzMzI5ODEsMjAuMDQ3MTY5OCA3LjcxOTM5MDUxLDE4LjYyODk2NjUgNy4xODM5MTk1MSwxNi4yMDg1MDM1IEM3LjE2NzYzNDM0LDE2LjEzNDg5MDUgNy4xNjM1MjYzMiwxNi4wNjE1ODcgNy4xNzAzMTg2LDE1Ljk5MDM4MzggTDguODAwMzAyMDcsMTUuOTkwNjI4NyBDOS4wMjAyMTIzMywxNi45Njk0NTU4IDkuMjk2MjE3MjgsMTcuOTMxMjU2MyA5LjYwMzI5MDM5LDE4LjI0OTYxNzcgQzkuODA3OTM1NDcsMTguNDYxNzg1NyAxMC4wMTU2OTU0LDE4LjUzNzczNTggMTAuMzQ2NDk0LDE4LjUzNzczNTggQzEwLjM1MjUwNTMsMTguNTM3NzM1OCAxMC4zNjAwMjkyLDE4LjUzNjUxNDcgMTAuMzcyMjY2NiwxOC41MzI1MzU0IEMxMC4zOTUwODYzLDE4LjUyNTExNTIgMTAuNDI0MDIwNCwxOC41MTA5NTk1IDEwLjQ1ODg4MTYsMTguNDg4MTE4NCBDMTAuNTU5NDgyNCwxOC40MjIyMDQ2IDEwLjY3NjU4MTUsMTguMzA1NTg2NiAxMC44MDAyMDAyLDE4LjEzODE3MTYgQzExLjA4ODQ5NDUsMTcuNzQ3NzM4OSAxMS4zNjg0NDcxLDE3LjE0MjE1ODIgMTEuNjEwMjEyMSwxNi4zNjgwNTMzIEMxMi4xMjY2OSwxNC43MTQzNDgxIDEyLjQyNjAwNzIsMTIuNDQ4NDgxMiAxMi40MjYwMDcyLDEwLjAyMzU4NDkgQzEyLjQyNjAwNzIsNy41OTg2ODg2IDEyLjEyNjY5LDUuMzMyODIxNzQgMTEuNjEwMjEyMSwzLjY3OTExNjU0IEMxMS4zNjg0NDcxLDIuOTA1MDExNjQgMTEuMDg4NDk0NSwyLjI5OTQzMDg5IDEwLjgwMDIwMDIsMS45MDg5OTgxNyBDMTAuNjc2NTgxNSwxLjc0MTU4MzE4IDEwLjU1OTQ4MjQsMS42MjQ5NjUxOSAxMC40NTg4ODE2LDEuNTU5MDUxNDQgQzEwLjQyNDAyMDQsMS41MzYyMTAzMiAxMC4zOTUwODYzLDEuNTIyMDU0NjMgMTAuMzcyMjY2NiwxLjUxNDYzNDM3IEMxMC4zNjAwMjkyLDEuNTEwNjU1MTEgMTAuMzUyNTA1MywxLjUwOTQzMzk2IDEwLjM0NjQ5NCwxLjUwOTQzMzk2IEMxMC4wODA5NjE1LDEuNTA5NDMzOTYgOS44NDY0NzcyOSwxLjYzNDAwMiA5LjU5MDMwMDU2LDEuOTcyOTQ5NjkgQzkuMjYzOTQ0MzMsMi40MDQ3NTE5NCA4Ljk3OTQ2MTAxLDMuMTEwMDUzMzkgOC43NTk4MjE2NCw0LjEwMjkxMzc2IEw3LjA5ODkwMDYyLDQuMTAyNDk3MTQgQzcuMzY0MTEzOTUsMi43Njk5NTg4NiA3Ljc0NDMzNTEyLDEuNzgyMjk3ODUgOC4yNTQyMzc4NiwxLjEwNzY0NTAzIEM4LjgwMjQ5MTQ1LDAuMzgyMjUwMTYzIDkuNTIyMDMwOTEsMy43NDgxMTI5M2UtMTMgMTAuMzQ2NDk0LDMuNzQ4MTEyOTNlLTEzIFogTTEwLjU2NjAzNzcsMTIuNSBMMTAuNTY2MDM3NywxNC4wMDk0MzQgTDIuNjQxNTA5NDMsMTQuMDA5NDM0IEMyLjIyNDY5MDc1LDE0LjAwOTQzNCAxLjg4Njc5MjQ1LDEzLjY3MTUzNTcgMS44ODY3OTI0NSwxMy4yNTQ3MTcgQzEuODg2NzkyNDUsMTIuODM3ODk4MyAyLjIyNDY5MDc1LDEyLjUgMi42NDE1MDk0MywxMi41IEwxMC41NjYwMzc3LDEyLjUgWiBNMTkuMjQ1MjgzLDEwLjg5NjI2NjkgQzE5LjY2MjEwMTcsMTAuODk2MjY2OSAyMCwxMS4yMzQxNjUyIDIwLDExLjY1MDk4MzkgQzIwLDEyLjA2NzgwMjUgMTkuNjYyMTAxNywxMi40MDU3MDA4IDE5LjI0NTI4MywxMi40MDU3MDA4IEwxNS41MDE4MjQ4LDEyLjQwNjYzODkgQzE1LjU2MzgzMzEsMTEuOTE1MDExIDE1LjYwODE2MzksMTEuNDEwNDA0MyAxNS42MzM5MTIzLDEwLjg5NjY5NjUgTDE5LjI0NTI4MywxMC44OTYyNjY5IFogTTEwLjU2NjAzNzcsOS4yOTI0NTI4MyBMMTAuNTY2MDM3NywxMC44MDE4ODY4IEwwLjc1NDcxNjk4MSwxMC44MDE4ODY4IEMwLjMzNzg5ODMwMiwxMC44MDE4ODY4IC0xLjg5MzM3NjgyZS0xNCwxMC40NjM5ODg1IC0xLjg2NTE3NDY4ZS0xNCwxMC4wNDcxNjk4IEMtMS44NzAyNzkyNGUtMTQsOS42MzAzNTExMyAwLjMzNzg5ODMwMiw5LjI5MjQ1MjgzIDAuNzU0NzE2OTgxLDkuMjkyNDUyODMgTDEwLjU2NjAzNzcsOS4yOTI0NTI4MyBaIE0xNS41NTA2MTQxLDcuNjg3NjM2OTUgTDE5LjI0NTI4Myw3LjY4ODcxOTcxIEMxOS42NjIxMDE3LDcuNjg4NzE5NzEgMjAsOC4wMjY2MTgwMSAyMCw4LjQ0MzQzNjY5IEMyMCw4LjgyNTUyMDQ4IDE5LjcxNjA3MTYsOS4xNDEyODkyMyAxOS4zNDc2OTM2LDkuMTkxMjYzOTkgTDE5LjI0NTI4Myw5LjE5ODE1MzY3IEwxNS42NTA4ODM3LDkuMTk3NzcwMTUgQzE1LjYzNTU3MTUsOC42ODUyODg2OSAxNS42MDE4NTcsOC4xODA2NjIxNCAxNS41NTA2MTQxLDcuNjg3NjM2OTUgWiBNMTAuNTY2MDM3Nyw2LjA4NDkwNTY2IEwxMC41NjYwMzc3LDcuNTk0MzM5NjIgTDIuNjQxNTA5NDMsNy41OTQzMzk2MiBDMi4yMjQ2OTA3NSw3LjU5NDMzOTYyIDEuODg2NzkyNDUsNy4yNTY0NDEzMiAxLjg4Njc5MjQ1LDYuODM5NjIyNjQgQzEuODg2NzkyNDUsNi40NTc1Mzg4NSAyLjE3MDcyMDg5LDYuMTQxNzcwMSAyLjUzOTA5ODgxLDYuMDkxNzk1MzQgTDIuNjQxNTA5NDMsNi4wODQ5MDU2NiBMMTAuNTY2MDM3Nyw2LjA4NDkwNTY2IFoiLz4mI3hhOyAgICAgICAgPC9nPiYjeGE7ICAgIDwvZz4mI3hhOzwvc3ZnPg==;direction=south;rotation=-90;" parent="m9YZgxOKDFD2zi5w1zmE-19" vertex="1">
          <mxGeometry x="8" y="3.5" width="54" height="54" as="geometry" />
        </mxCell>
        <mxCell id="m9YZgxOKDFD2zi5w1zmE-20" value="" style="strokeColor=#dddddd;shadow=1;strokeWidth=1;rounded=1;absoluteArcSize=1;arcSize=2;" parent="1" vertex="1">
          <mxGeometry x="-230" y="120" width="140" height="60" as="geometry" />
        </mxCell>
        <mxCell id="m9YZgxOKDFD2zi5w1zmE-21" value="&lt;font color=&quot;#000000&quot;&gt;Authentication&lt;/font&gt;&lt;br&gt;Firebase Auth" style="sketch=0;dashed=0;connectable=0;html=1;fillColor=#5184F3;strokeColor=none;shape=mxgraph.gcp2.firebase;part=1;labelPosition=right;verticalLabelPosition=middle;align=left;verticalAlign=middle;spacingLeft=5;fontColor=#999999;fontSize=12;" parent="m9YZgxOKDFD2zi5w1zmE-20" vertex="1">
          <mxGeometry width="32.4" height="45" relative="1" as="geometry">
            <mxPoint x="5" y="7" as="offset" />
          </mxGeometry>
        </mxCell>
        <mxCell id="m9YZgxOKDFD2zi5w1zmE-22" value="" style="strokeColor=#dddddd;shadow=1;strokeWidth=1;rounded=1;absoluteArcSize=1;arcSize=2;" parent="1" vertex="1">
          <mxGeometry x="80" y="270" width="140" height="60" as="geometry" />
        </mxCell>
        <mxCell id="m9YZgxOKDFD2zi5w1zmE-23" value="&lt;font color=&quot;#000000&quot;&gt;Backend&lt;/font&gt;&lt;br&gt;Cloud Run" style="editableCssRules=.*;html=1;fontColor=#999999;shape=image;verticalLabelPosition=middle;labelBackgroundColor=#ffffff;verticalAlign=middle;labelPosition=right;align=left;spacingLeft=20;part=1;points=[];imageAspect=0;image=data:image/svg+xml,PHN2ZyB4bWxucz0iaHR0cDovL3d3dy53My5vcmcvMjAwMC9zdmciIHhtbG5zOnY9Imh0dHBzOi8vdmVjdGEuaW8vbmFubyIgd2lkdGg9IjM2NS40NjQ5OTY3NzA0MjQ5MyIgaGVpZ2h0PSIzNzkuMjIyOTk0NDYzNTc3OTUiIHZpZXdCb3g9IjAgMCA5Ni42OTU5OTkxNDU1MDc4MSAxMDAuMzM1OTk4NTM1MTU2MjUiPiYjeGE7PHN0eWxlIHR5cGU9InRleHQvY3NzIj4mI3hhOwkuc3Qwe2ZpbGw6IzQyODVmNDt9JiN4YTsJLnN0MXtmaWxsOiNhZWNiZmE7fSYjeGE7PC9zdHlsZT4mI3hhOwk8cGF0aCBjbGFzcz0ic3QwIiBkPSJNMjkuNzk0IDEwMC4zMzZMNDYuOTIgNTAuMTY4aDQ5Ljc3NnpNMCA5OS42NzFsMTIuOTc2LTQ5LjUwMkgyOS4yMkwxNi44OTcgOTIuMDU0eiIvPiYjeGE7CTxwYXRoIGNsYXNzPSJzdDEiIGQ9Ik0yOS43OTQgMEw0Ni45MiA1MC4xNjhoNDkuNzc2ek0wIC42NjZsMTIuOTc2IDQ5LjUwMkgyOS4yMkwxNi44OTcgOC4yODN6Ii8+JiN4YTs8L3N2Zz4=;" parent="m9YZgxOKDFD2zi5w1zmE-22" vertex="1">
          <mxGeometry width="30" height="30" relative="1" as="geometry">
            <mxPoint x="15" y="15" as="offset" />
          </mxGeometry>
        </mxCell>
        <mxCell id="m9YZgxOKDFD2zi5w1zmE-26" value="" style="edgeStyle=orthogonalEdgeStyle;fontSize=12;html=1;endArrow=blockThin;endFill=1;rounded=0;strokeWidth=2;endSize=4;startSize=4;dashed=1;dashPattern=1 3;strokeColor=#4284F3;entryX=0.5;entryY=1;entryDx=0;entryDy=0;startArrow=classicThin;startFill=1;" parent="1" source="m9YZgxOKDFD2zi5w1zmE-16" target="m9YZgxOKDFD2zi5w1zmE-20" edge="1">
          <mxGeometry width="100" relative="1" as="geometry">
            <mxPoint x="-210" y="240" as="sourcePoint" />
            <mxPoint x="-110" y="240" as="targetPoint" />
          </mxGeometry>
        </mxCell>
        <mxCell id="m9YZgxOKDFD2zi5w1zmE-27" value="Check JWT token" style="text;html=1;align=center;verticalAlign=middle;resizable=0;points=[];autosize=1;strokeColor=none;fillColor=none;" parent="1" vertex="1">
          <mxGeometry x="-160" y="210" width="120" height="30" as="geometry" />
        </mxCell>
        <mxCell id="m9YZgxOKDFD2zi5w1zmE-28" value="API access&lt;br&gt;(with JWT token)" style="text;html=1;align=center;verticalAlign=middle;resizable=0;points=[];autosize=1;strokeColor=none;fillColor=none;" parent="1" vertex="1">
          <mxGeometry x="-380" y="305" width="110" height="40" as="geometry" />
        </mxCell>
        <mxCell id="m9YZgxOKDFD2zi5w1zmE-29" value="" style="edgeStyle=orthogonalEdgeStyle;fontSize=12;html=1;endArrow=blockThin;endFill=1;rounded=0;strokeWidth=2;endSize=4;startSize=4;dashed=0;strokeColor=#4284F3;entryX=0;entryY=0.5;entryDx=0;entryDy=0;exitX=1;exitY=0.5;exitDx=0;exitDy=0;" parent="1" source="m9YZgxOKDFD2zi5w1zmE-10" target="m9YZgxOKDFD2zi5w1zmE-16" edge="1">
          <mxGeometry width="100" relative="1" as="geometry">
            <mxPoint x="-440" y="365" as="sourcePoint" />
            <mxPoint x="-310" y="365" as="targetPoint" />
          </mxGeometry>
        </mxCell>
        <mxCell id="m9YZgxOKDFD2zi5w1zmE-30" value="User auth&lt;br&gt;(get JWT token)" style="text;html=1;align=center;verticalAlign=middle;resizable=0;points=[];autosize=1;strokeColor=none;fillColor=none;" parent="1" vertex="1">
          <mxGeometry x="-470" y="160" width="110" height="40" as="geometry" />
        </mxCell>
        <mxCell id="m9YZgxOKDFD2zi5w1zmE-31" value="" style="edgeStyle=orthogonalEdgeStyle;fontSize=12;html=1;endArrow=blockThin;endFill=1;rounded=0;strokeWidth=2;endSize=4;startSize=4;dashed=1;dashPattern=1 3;strokeColor=#4284F3;entryX=0;entryY=0.5;entryDx=0;entryDy=0;startArrow=classicThin;startFill=1;exitX=0.5;exitY=0;exitDx=0;exitDy=0;" parent="1" source="m9YZgxOKDFD2zi5w1zmE-10" target="m9YZgxOKDFD2zi5w1zmE-20" edge="1">
          <mxGeometry width="100" relative="1" as="geometry">
            <mxPoint x="-150" y="280" as="sourcePoint" />
            <mxPoint x="-150" y="190" as="targetPoint" />
          </mxGeometry>
        </mxCell>
        <mxCell id="m9YZgxOKDFD2zi5w1zmE-32" value="" style="edgeStyle=orthogonalEdgeStyle;fontSize=12;html=1;endArrow=blockThin;endFill=1;rounded=0;strokeWidth=2;endSize=4;startSize=4;dashed=0;strokeColor=#4284F3;entryX=0;entryY=0.5;entryDx=0;entryDy=0;exitX=1;exitY=0.5;exitDx=0;exitDy=0;" parent="1" source="m9YZgxOKDFD2zi5w1zmE-16" target="m9YZgxOKDFD2zi5w1zmE-22" edge="1">
          <mxGeometry width="100" relative="1" as="geometry">
            <mxPoint x="-400" y="310" as="sourcePoint" />
            <mxPoint x="-220" y="310" as="targetPoint" />
          </mxGeometry>
        </mxCell>
        <mxCell id="m9YZgxOKDFD2zi5w1zmE-33" value="API access&lt;br&gt;(with FirebaseAuth Token)" style="text;html=1;align=center;verticalAlign=middle;resizable=0;points=[];autosize=1;strokeColor=none;fillColor=none;" parent="1" vertex="1">
          <mxGeometry x="-90" y="305" width="160" height="40" as="geometry" />
        </mxCell>
        <mxCell id="m9YZgxOKDFD2zi5w1zmE-38" value="Access user specific data" style="text;html=1;align=center;verticalAlign=middle;resizable=0;points=[];autosize=1;strokeColor=none;fillColor=none;" parent="1" vertex="1">
          <mxGeometry x="-10" y="120" width="160" height="30" as="geometry" />
        </mxCell>
        <mxCell id="m9YZgxOKDFD2zi5w1zmE-43" value="" style="shape=image;verticalLabelPosition=bottom;labelBackgroundColor=default;verticalAlign=top;aspect=fixed;imageAspect=0;image=data:image/png,iVBORw0KGgoAAAANSUhEUgAAAgAAAAG8CAYAAAComB1pAAAABGdBTUEAALGPC/xhBQAAACBjSFJNAAB6JgAAgIQAAPoAAACA6AAAdTAAAOpgAAA6mAAAF3CculE8AAAABmJLR0QA/wD/AP+gvaeTAABA3ElEQVR42u3daXRc1YHu/WefOjVYli1ZlgzhQiYIEKYEMINlW7ZosAbCou9aN1rvm74fut91+3JX07FlYzxJJR8HE4ZABggkISEJSQidmMxJG4glFQZiMjgzGRoCtsFgjG1syRqrztnvB3PTaUYP0qldVf/ftxDbKj1nevaps/cxlzx43VdtZBoFp+T/Mlg1tvmlmSQRMyOlT5l2yaPXf+pRwigfTd1LF40+OfBDay1hxCzTPGuP/87qEZJw7lyX82W9T8hEH5LkkYg7/FOqlf/FPoUvjhFG3OVr9+h9kk4iifIx+vzQ16KBfJIk4pV4W0b+O6veJkPxckzoWe9TXl9r1y+NzFfIw7mBqNILZknGEEbcR8ZzIyfOWdHZSRLl4eKVi1dEL4w2kEQRzmFNDZzD3HRXb1vXbz1JMr5ZJWmATNxrz8lTqwmiGCVg59BHPxgEKZIobQuDf8yEO4Y+QhLx88+crsTxGYJwz8s2H/ZIr9z2772060VjzA3k4p70vHqZJN/OxC3aNzZl58Ceu0mitI3tr77P7s+nSSJmSU/pOTzC5CIrrctdEez5awGQpJkHCh830pPE4xZT7St5fi1BFEF+29CHGtdf/Q6SKE2XdH/45Pz2g1eSRBEGLhfWyUz1CcK9y/+fButn3fl//9dfC8CGjmBc1qwkIAcPptkz5E3j+aXYD5WR0It2Rd8iidI0tKfwfY1GfAEdM6/GV/JcBi1ODiiNXbZ19lX51xQASepr6/6OrB4iJsckPKXncjutGArbhs+f0724lSRKS2PX4ivDZ4fPIIkiDFiaGmQS9C4HhzQ/6mtZu/G/lLXXtDebWCqpQFhu8U+bpsR/m0IQcQut7POj9xBEiW22nWN3K2LqWeznqZOq5L+bB5cdlJc117zmev/q/9DbvuYPMuYu8nJPZkGD6NVFuAvwwuisuav+NUsSpWHOtYs/Fr44wi2zuBmj9AJmWzq5aaTb+tuyf37LAiBJKVvIStpLbG7xGtLyz5xOEMWoz9uGu88PgiqScNvC4F+qwx1DS0gifsmza+TNZOasg16K0uH6172mvN5/fLA12Gel68jNPanGepk00wLjFh0opFL799xLEm4bfdl8mxX/ijDCTCeUnlNHEE5uHNudaw72H3YBkCSlwzsk/Z70HLsLUJVQ6oIZBFEEhWcOXjknuOZ0knBTY7D4rMK2oUtJoggDk4vrZDIJgnDPr+sPnP6G65m8YQHINQcF2aiT/NyTPHeGvFputcXNjkcm2jXMtEBHRS+Mf1fjTPuLfVBSl1Lq7BqCcPKgsJ0bOjrCIy4AktTftrbXSD8kRbcYzyg9n2eciiHcMXzGvK4lHyQJt1yUXfI/CzuGTyaJ+GWaGiSm/Tl4odCG/vaeh9+0vL11g1CnJF5J5xj/3dXy38EzafHfBrDKPzfyOYJwSBB42j5yB0EU4zw0VQnOQy4atVG44q3+0FsWgL727F+M9GnydE+a5l2cuwC7R2fMWX71zSThhjmDe+4IXxplekzcA0zPKD2/niBcHKcYe0uuLdh2zAVAksbGUusk7SJWt3h1KaXO4rxXDIUdo0sXBp21JFFcC4Nr6sPtI/+LJOKXPLeWZ5GcbGbaqVR002FdQw7nDz125cpBI/WQrHtSc2by9G0xGvZg3h99Of9Nkiiu0b0j34mG8rx1Ju7BR1VCqQuY9ufkuSmyq3LNwcEJKwCS1PR4eLesfkG8jpW9dEKpi3kgsBjCZ4YunZNddi5JFMfF2SUXFbYNzSOJIgw8GmeyHombo//Hc63Zw16v5LC3YBAEkRK2UxILbLt2MJ4znRW4itG085Gxu4c3kESR8t81er8KnI5iH/03pJU8g68eXTwkJNspYw77oDiiCte/qOcxSZzwnGt9rMFdLIVnR06es+bD/x9JxGtu1+L/E+4cPZEk4pdZ0CAZHj528PL/lf6Wnp8eUZk70p8RGrNc0jBpu+XQW7imEkTsB51V9OzIpxQE3A+NycIg8PPbhm+VZfQf+3nmVN5K6qiDfiJcc6R/6YhPWptbup+VdCt5u4f3cBdHuGe8es7gHuahx2R8YM+Xon3jTD6PW8JTZi7T/txkbvjxouD5SS8AkjQ6MPUGSTsI3S1eTVLJ99cSRBEUtg3980XXLzmOJCbXJV1L/1t++9CHSCJ+qQtqZaYz4cJBz9h04eNHdc04mr+0pWPZiDVmDbk7eBfgojqZqRykcbPDYcLsyt9PEpNr+MDo9+xwyNctcY8vp/pKncdLyNw8+Wh5rjkYja0ASFJuUdfXJT1K+o5JeryWs3h3AebN61rCtLRJMmfN1X8Xbhs6nySKMLCYXy+TpHe5d+03/f1t2W8f7d8/+i1qjDXylkiK2Axu8c+sUeK4NEHE3gCs8rtH7yOISTrZ7cp/3YbkELfE2zJKnlpNEO4JjaKlx/IPHFOl62vt+qWsvsp2cIuRlF4wi6k6xTginxs5cc6Kzk6SmFgXr1y8ovDC6CySKMK5pIlpf46O/j/f39rzm6IVAEnykt5KSQNsDvdau/8eWntRSsDOoY9+MAhYmWmCLAz+MRPtGF5HEvHzz5iuxPEZgnDP/jDyjnl5/mMuAL2Xdr0oqxvZHu7J8L1dUUT7xqbsHNhzN0lMjLH91fdF+8e5CsUt6SndyDLjLjIy6x5pX/NS0QuAJNUPhrca6Uk2i2M7SbWv5Pm1BFEE+W1DH2pcf/U7SOLYXNL94ZPz2w9eSRLxS1/IjCI32T8dqG+YkHVHJqQAbOgIxq3VKjaMgwfx7BnypiUJIu5DdCT0ol3Rt0ji2IzsLXxPoxFfQMfMq/GVYk0RNwd2xi7bOvuqvDMFQJL627LfltVDbB7HJDyl5nIbrxgK24bPn9O9uJUkjk5j1+Ir8zuGzySJIgwc5jdIPr3LwaHFj/pa1m6csKI3oa3RJpZKKrCR3JI8jfW7iyK0ss+P3kMQRxnfzrG7FbHef9z8k6rkn8wDxA7Ky5prJvSaPZH/WG/7mj9I+jzbyT2ZBQ2izxfhLsALo7PmrvrXLEkcmTnLr745fHGEW1dx482iLo/+b+9vy/7Z2QIgSSmF3ZL2srHc4jWk5Z/JO7yLUtu3DXefHwS8vOYwLQz+pbrw7EgnScQveXaNvJnMYHXQSzYdXTfh14WJ/gcfbA32Wek6tpd7Uo31MmmmBcYtOlBIpfbvuZckDs/Yfu9bdqDAk6txD/7TCZYRd3bj2O5cc7Df+QIgSUqHd0j6PVvNsbsAVQmlLuCFHsVQeObglfOCq08liTfXGCw+K//MwctIoggDhIvrZDIJgnDPb+oPnD4p64pMSgHINQcFKy1lu7knee4MebXc4oubHY9M+GL0bZJ4c9EL49/VONP+Yh8c1KWUOruGIFw8d1h1bujomJS3YEza/eBca3aTZH/E5nOL8YzS83m2qhjy24fPnNe15IMk8frmrFnyocKO4ZNJIn6ZpgYpQe9y7nxtdX+uLZubtOI3qc1FUaekMTajW/x3V8t/B8+kFaPK558b+RxBvI4g8KLnRj5DEMU5HyQ4H7hotOBpxWT+gEktALnW4CkjfZrt6J50Uz2NvwjC3aMz5iy/+maSeNXof3DPHeFLo0xTiXuEyR1Bd8cLxt6yuSX7TMkWAEkaG0utk7SLzekWry6t1Fmcb4uhsGN06cKgs5YkXrn4B0vrwu0j/4sk4pc8t5ZngpxsZtqpVHTTpF8HJvsHPHblykEZu5Yt6p7UnJkyU3jqN/ZmP5j3x/YXvkESr9g79t1oKM9bZ+IeBFQllLqAaX9OXv+tWZ1rDg6WfAGQpAVboi/I6hdsVsd2snRCqQs5ARTlLsDTBy+bk112bqXncHF2yUX5bUPz2SOKMABgXRBXR/+P97V0fS2WEhjHDwmCIFLCdkpiYW/XTgLvY+WvotwFyEfG7h7eUPE57Bq9XwVOC7GP/hvSSp4xjSAcPCQk2yljYjkoYqt//Yt6HpPR/Wxf19oma38X7S7AsyMnN65e/E+V+vvP7Vr8f8KdoyeyJ8Qvs6BBMjwE7KCv9rf0/DS2IhjnbxbKXCNpmG3sFv+kKvnvnkoQsXd9q/C54dsUBBV3H3ZhEPj57cO3yDL6j/14P5W3gzrqoO+Fq+P8gbGeeDa3dD9rjf0429k96aYGGaYFxi7cM149Z3DPHZX2e48PvvTFaO84rTNuCU+ZufXk4CRzw48XBc+XbQGQpGnj0Q2SdrCx3eLVJJV8fy1BFEFh29A/NwbLZ1XK7zv/+jVvy28b/ge2fPxSs2fITGfChYOeselC7IPj2AvAD64Ihq21XWxvB+8CXFQnM5WTQ9zscJiwe4cr5vmYwgv7v2+HQx4/j3t8OdVX6nxKvqNb59pcczBa9gVAknKt2XslPcpGd0zS43WgRZLfNjR/XteSeeX+e87tWdZc2HZwNlu8CAV/fr1Mkt7loFx/a/e3ivGDi7M3GGNlbKekiG3vFv/MGiWOSxNE7MNiq/zu0fvK/td87uB9NmRzxy3xtoySp1YThHsiGbu8WD+8aHWwv6Vnq6y+yvZ3i5EOTQtkilDswudGTmxc/eHF5fr7Xbxy8YrwhdHj2NJFOKabOKZdZGXu6m/p2VpxBUCSvKS3UtIAu4Fro4Up8t/DaKEoI+TtIzd+MAjKbmWmhcE/ZqIdw+vYwvHzz5iuxPEZgnDPQMI3QVGvwcX84b2Xdr0omZvYD9yT4fvCooheHp+yc2DP3eX2e40dmPr1aP84V6G4R/8pT+lG3vbn5sZRcOgaWKEFQJLqBwq3GOlJ9gbH9s1qX0meGC6K/LahDzWuv/od5fL7XNL94ZPz24b+ni0bv+TsGczscfMM+1T9gbDo638UvQBs6AjGrdUqdgj3pGfPkDctSRAxsyOhZ3fZspkWOLK38D2NRnwBHffJvcZX+twZBOHi5d+Eizd0BOMVXwAkqb8t+20r82N2C8ckPKXmcvuwSHcBZs/pXtxa6r/HvK4PX5HfMXwmW7QIBX5+g+TTu5wr+DI/7mtZu9GJkuhMI1K0VFKB3cMtyVOr5bNuePxCK/v86D0lX2SeH/uSItb7j5t/UpX8k3mQ10GFV651TnCmAPS39jxhZb7A/uGYV94WyDiiCGeKF0ZnzV31r9lS/fyNK5bcGO4a5RZSEY7ZVBPr/Ts6/L+9v7XnCQrA60ir0CVpL3uJW7yGtPwzphNEMUbQ24a7zw+CqlL73AuDf6nObx9cxhaMX/Ls6UrUs5iXg/alTLjeqXO7Sx/mwdZgn5FZz37invTcmTJppgXGLTpQSKUOvPS1UvvcY/u9b9mBAk+Qxj34TyeUnsNNFycH/1ZrHmwN9lEA3uyEly58WtIT7C6OnViqfKVm856AYig8PfT384KrTy2Vz9sYLD4r/8zBy9hy8UtdXCeTSRCEe55QJnRufQ/nCkCuOShYqZP9xT3J82plahnUxT5yGI9M+GL07VL5vOGu/Hc0zrS/2E/mdSmlzq4hCBe3jYmW5poD5x5yd/Kebq41u0myP2K3cewugGeUmcfDRcWQ3z58ZuPqzv/h+uecs2bJh8LtQ6ewxeKXaWqQEvQu586bVvf3tqx1cpq7s1/qWkWdksbYfdzin1wt/x1VBBH7AWEVPj98l9OfMQi86LmRz7CxinBcvrtaCY5LF41FJlzt6odztgDkWoOnJHsH+4970k31ksdII27h7tEZc5ZffbOrn6/x4N5Phy+NMl0k7hGmZ5Sez4N/Tm4b6ZZD1zIKwBHLRNE6SbvYjRzbaerSSp7Fd43FUNgxunRh0Fnr2ueaEyytK2wb/me2UPyS59bKq00RhHt2paPwZpc/oNMFYGN7MCBj17IfOXgXoLFOZgpPG8fNDub9sf2Fbzj3wfaOfTcayvPWmbhP4FUJpS5gdo6bo3+zYmN74PTr7p2f2L1gS/QFSVvZnRzbudMJpS7kxFOUuwBPH7xsTnbZua58nouzSy7Kbxuaz5aJX6qxnvU53LS16fHCvc4XSNc/YBAEkTy7RBILirt28jmnRt5Mbj3GfhcgHxm7e3iDK58nemF0gwocnrGfvBvSSp4xjSAcPEStNZ1BEEQUgAnQv6jnMWP1LfYr1/Yeo8yCWeRQjLsAz46c3Lh68T8V+3PMXf3hq6LnR09ii8Qvs6BBMjyM66Cv5dq6Hy2JU3jJnPA8s0zSMPuWWxInTZH/bt46VoQxhsLnhm9TEBTtGF4YBH7+2ZFbZRn9x81/T7USvKXTRcOJRNhdMmO4Uvmgm1u6n7XGfpz9yz3ppnoZFiCJXbhnvLrx4N5PF+vnjw++9MVo7/hUtkTcrdtTZl4DObjYy40+uumyYAcFYBJMG49ukLSD3cyxnagmqeT7awmiCPLPHPzfjcHy2L+HmX/9mrfltw3/A1sgfqnZM2SmM+HCQc9OGw8/UVLn7lL6sD+4Ihg2Mt3sZw7eBbioTmYqJ6XYRxzDYcLuHb4/9uLx/Mvfs8Mhj5/HzEz1lTqfsu3o6H/ZD64ISupr6pI7gPtaur4m6VF2N8ckPV5DWqy7ANuG5s/rWjIvrp83t2dZc7h96AKSj19mXr1Mkt7loEdzi7pL7kH10tuTjLEytlNSxD7nFv/M6UoclyaIuBWsxl8c/XpsP+65g/fZkNjjlnhbRv5pPHDroEjGdsqYknsatiSrZH9Lz1ZJX2O/c6ybSUozNak4Z6CdIyc1rv7w4kkf/a9cvDx8YfQ4Eo994KN0E8eWoye+z79yTSo5JXsvyfO9FZIG2PtcG6VMkf8eRilFuRGwfeTGDwbBpK3MtDD4x0x+x/B1JB0//73TlDg+QxDuGbCFMCjZ62ipfvDeS7telMxN7H/uyczne8qi3AV4eXzKzsGXvjBZ//7o/up7o/3jXIXiHmCmPKXn1BOEm6P/IHd5ULIvrCvps3Qmmn6rZJ5iL3TsmKj2lTxvBkEUQf6Z4X9oXH/1Oyb6372k+8MnF7Yf/O8kHL/k7BnyqnnxloNnuqcyYc2dpfwblHQB2Ni+eEzSKnZE96QvqJU3LUkQMbMjoWd32QmfFji8r/BdjUZ8AR33CbrGV/pcyrSbB5td8so1iAJQLP2t3d+yMj9mb3RMwlNqLtMCi3MXYGj2nO7FrRP1783r+vAVhe3DZ5FsEYr0/AbJp3c5aFN/W/bfS75glsOWMIqWSiqwT7oleWq1fNYrj19kFT0/+uUJKxTPj31JEev9x80/cYr8k3mg1kEFyXaWwy9SFgWgv7XnCSvzBfZL15qZUaqpXoxf4he+MHpc48olx7xqZuOKJTeGu0a5lVOMY2cB6/07yer2/taeJygADkmr0CVpH3unWxKzMvLPmE4QxRimbB/qPj8Iqo727y8M/qU6v31wGUnGL3n2dCXqWVTLQftSJlxfLr9M2RSAB1uDfTJaz/7pYDmbO1MmxbTAuEUHxtOpAy8d9YJZIy+b++1AgSc54x78pxMsq+3qtpHterA1KJuBZlmdlW0qvF3SE+ymjh00Vb6Ss3mSuSh3AZ4e+vt5wdWnHunfawwWnxVuG1pEgkUozBfXyWSY9uegJ6J0VFZfNZdVAcg1BwUrdbKfuid1/gyZWgaTsZfi8cgUdkdH/JKScFf+Oxpn2l/sJ+S6lJJn1xCEi9vGREtzzUFZPWxedvdlc63ZTTL6d3ZXx+4CeEaZeaxmVpS7ANuGz2pc3fk/DvfPz1mz5EPh9qFTSC5+maYGKUHvcrBKf6u3ZW3ZTTcvyy9mrQ2XSBpjp3WLf3K1/HdUEUT8B4TC54fvOqw/GwRetHPkTkKLX+JdU5Xg+HDRmFVUlgvOlWUByLUGT8mKk5iD0k31kscIJ27h7tEZjSuW3PiWo/+hvbeFu0e5Bx0z4xll5nOHzNEGfWuuNSjLJefL9tHsjA0DSbvYeR3b4erSSp7FtMBiyG8bXLYw6Kx9w4t/sLQu3DZ8FUnFL/n+WnkzUgThnhczUVS2L50r2wKwsT0YsFYB+6+DdwHm1MtM4Snn2Mcxg4Xk2P7CN97o/4/2jX8nOpj3SSrmk3BVQqkL6wjCzaNmxcb2oGxfO1/Wk7MX/jT8vKSt7MRuMRmPE16RFJ4+eNmc7LJzX/3fG7P/ckH4zMEmEopfas5MmTTrZDho64LHo6+V8y9Y1ntdEASRtaZTEguZu3bSO6dG3kxWOot9PJOPTPTSyDdfM/rfFd6vAodJ7CfghrSSZ/KVmIuHirWmMwiCiAJQwnJt3Y8aq2+xP7u25xllWOu8KMIdw6c0rl78T//3f89d/eGrCjtH304y8cssaJAMD8U66Gu5tu5Hy/2XrIjv+wqeWZawtl0Sc2wckjhpivx3V6vw9EHCiHdso/C54dsUBPcslLzhp567VZbRf+wn3/dUK8HbMl00nEiE3ZXwi1bEF0+bW7qfNdIn2K/dk26ql2Hhk/jvAuwZr248uPfTIwf33B3tHZ9KInFf/Y0y87gD5iJjzQ2bLgt2UADKSJQOb5TRTnZvx3bAmqSS768liCLIbxv63+HTw/+TJIpQfM+dITOdCRcOXv63jQxW3Vox599K+UVzzcFBY81qdnAHT4YX1clM5WQYNztUSGikwOPncV9ipvpKXsDLsZw8Joy9dkvHshEKQBnqa+n6mqweYzd3TNLj9aeoGJl59TJJepd7V389llvUXVEPjFfWXmiMlWeXSIrY293inzld3nEZgkBZSxyfkX9aNUG4J5Jnl8iYinoatuJqaH9Lz1ZJ97K/O9bNJGUW1DMlCuU8AFGaaX+Ojv7NF165NlSUirwPZcNwhaQB9nrHRkdvmyL/PYyOUJ78905T4njucjlowEaFtZX4i1dkAchdHuyyRjez37snM79exmeEhDIb/Kc8pefwtj9HR//rcpcHFfniuIp9EmVKWHOLZJ5i73fsRFntK3k+7wlAeUldUCevmhdgOXjGeSpjp99Rqb99xRaAje2Lx6yxTAt0UPqCWnnTkgSB8jjJ1vhKsdaFqwWgc2P74jEKQAXKtWTvtzI/5iBwTMJTai7TAlEmhXZ+g8TXWi7a1N/a9aOKLqcV3/8ULZVU4FhwS/LUavmsk44S5584Rf7JPNjqoIJkOys9hIovAP2tPU/I6G6OB9eamVGqqV6Mm1DS+zBvvHSSlf10f2vPExQAKGXDNZL2kYRbErMySpzBu9JRoueVs6crUZ8mCPfsS/j+emKgAEiSHmwN9smIHcJBmbkzZVLspiixwX86oRTLW7u5bWS7ei9ds5ckKAB/ZVPh7ZKeIAnHDtYqX8nZvDgFpSV9cZ1Mhml/DnoiSkdfIAYKwH+Raw4KnomWkoR7UufPkKllWiBK5KRal1Ly7BqCcHHbmGhprjngoW8KwGv1tqz9sZXdSBKO3QXwjDLzWEUNJTL6n18vJXh81UHf7m1Zy7RvCsCbiRZLGicHt/gnV8t/RxVBwGmJd02V/86pBOGe8dDTKmKgALypXGvwlKzuIAkHR1ZN9ZLHyAquXv2NMvO5U+Ume8vmRdknyYEC8JYyNgwkvUgSju2sdWklz2JaINyUel+tvBkpgnDPi5kouokYKACHZWN7MGBkA5Jw8C7AnHqZKTxdDcdOpFUJpS7kJVZOjv2NWbmxPeD17xSAw9f0eHSXpK0k4RaT8TjRwr3R/5yZMmlOpw7aunBL4avE8AbnUyJ4Yws3XrfQGPWThGMiq6GvP6to7xhZoPijqIa0pv6/J0mG06lrg39rTVOurftRouAOwBHLtWVzkv0WSbi21xplWGMdjsgsaODi7+Lo1uheLv4UgGMSGnOtpFGScEvipClKvIvpViiu5HumKcFbK1007HlhFzFQAI7J5pbsM5L9OEm4OfIyLLiCYvGN0ixQ5ebo35obNl0W7CAJCsAxs+noBknPk4RjO29NUsn31xIEiiJ93gyZ6T5BuOfZqYUCgzYKwMTINQcHJbuaJBw8CV9UJ1PFtEDEPMKcykuqHB79X/ODK4JhkqAATJj+luxXJf2UJByT9JTmtauIWWZevUyS06dzrB7ra+26nyAoABNcK421kemUZAnDLf5ZNfKOyxAEYpE4PiP/tGqCcE9kE6ZTxnCOpgBMvFx79+OSvkYSjnUzSZkF9UzFQhwDAaWZ9ufo6N98Ibeo+xcEQQGYvOM/b1ZLOkgSjo3K3jZF/ilMC8TkSr53mhLHc7fJQYM2KqwlBgrApOq7onunsYYXSzgoM79Bxmdkhkkq/ylPqTlM+3Ny8C+ty10e7CIJCsCkizKFWyQ9QxKOnaCn+Uqdx5PZmBypC+rkVTPjxMEj/6kpUc2nyYECEItcczBqjVaQhIMn6QtnyJvG3GxM8CWmJqkUa064unU6N7Yv5sUgFIAYS0BL9n5JOZJwTMJTupHbtJhYmXn1El8vuWhTf2vXj4iBAlAEtlNSSA5u8U+rVuIE1mfHBO1PJ06RfwrT/hxUsMZbSgwUgKLob+35jay5myQcY4zSC+p51zUmZl9q4s2TTm4a6Y5cS9fvSYICUMQK6nVL2k8SbknMyihxxnSCwDFJnT1dXkOaINyzz/iJ64iBAlBUj7SveUnWsCM6KDN3pkyKXRxHOcJMe0qxzLSb28aou/fSNXtJggJQdAMNDbdL+jNJOHaSqPKVuqCOIHB0o/+L6mQyTPtzj/1DlAo/Tw4UACdsnX1VXvKuIQn3JM+rlalNEgSO7MRYl1LqnFqCcLHYe2ZprjkokAQFwBn9rV0/srIbScK5k8WhKVzAEUjPr5cSPEbqoG/3Lco+RAwUAAevNv4ySXmCcIt/crX8d1QRBA5vf3nXVPnv5L0SDhoPPa0iBgqAk3Ita/5kZe8gCQdHdE31kseIDm8hYQ6N/uHgAEu3bl6UfZIgKAAOX2midZJeIgjHdvS6tFJnMS0Qby51Tq28GSmCcM+LmTC8kRgoAG7fBWgO9hvZHpJw8OQ+p15mCk914w0GmFMSSl3ErBEXWWNWbmwPBkiCAuC8mQOnf17Sb0jCsRN8xlP6Qk7weH3pOfUyaU6JDvrlwi2FrxIDBaAkbOjoCD1FrFHtoOQ5NfJmsrIbXnUibEgredY0gnBw8G+tWRIEQUQUFICS0du6tl/St0nCtT3eKNPEQ174rzJNDZLhIVH3Lv/6eq6t+1GCoACUnNBouaRRknBL4u1VSryLaV44JPmeaUqcyNsjnWM0kvDDNQRBAShJm1uyz0j24yTh4IhvQYMMC73AN0qzUJSro/8bNl0W7CAICkDp7sPp6AZJz5OEYzt+TVLJ99USRIVLnztDZrpPEO55tjof3koMFICSlmsODlpjuI3l4sn/4jqZKqYFVioz1Vdy9gyCcHPotPwHVwTD5EABKP0SsKjrK5J+ShKOSXpK87rXipWZV8/rop289uux/pbsBoKgAJTJUMNYG5lOSZYw3OKfVSPvuAxBVJjE8Rn5p1UThHsimzCdMoZzJQWgjO4CtHc/bozuJQnHupmYAlaBhVzpBWxzR92dW9T9C2KgAJSfcbNK0kGCcGw0eEJGyVMYDVaK5OnVShzPXR8HDdowZBl1CkB56ruie6ex5iaScE96fr2Mz4iw7Af/KU+pxgaCcJCV1uUuD3aRBAWgbEWZwi2S2UYSjl0YpvlKnccT4eUuNXuGvGpmfjjoL1Oimk8TAwWgrOWag1FjtYIkHLw4XDhD3jTmhJdtyatJKnUuJc/J0b9R58b2xWMkQQEoe31t3Rtk9DBJOCbhKd3IqnDlKjOvXuJrHherWW+uJftDcqAAVFDj9TolhSThFv+0aiVOYF34stuuJ06Rz4OeLipYYzqJgQJQUXKLun4ta+4mCdcGI0bpBfVinFhm27SJB/+c3DTSHbmWrt+TBAWgAquv1y1pP0m4JTErI/+M6QRRJlJnTZfXkCYI9+wzfuI6YqAAVKRH2te8ZKX1JOGe9NyZLBNbDiPMtKcUyz27ydps76Vr9hIEBaBiDdbPuk3Sn0nCsQtHla/UBXUEUeqj/4vqZKYw7c/Bq/8fbCa6ixwoABVt6+yr8pJ3DUm4J3lerUxtkiBK9eRWl1LqnFqCcLFge2ZprjkokAQFoOL1t3b9yMpuJAnnTlLKzGVaYKlKz6+XEjzO6dzY39jv9C3KPkQSFAD89WrjL5OUJwi3+KdUy39HFUGU2nZ711T575xKEO4Zj4xZSQwUAPyNXMuaPxnpTpJwcCTZVC95jCRLRsIcGv3DvdG/tR/fvCj7JElQAPDqalzw10naQxKOHSR1aaXOYlpgqUidUytvRoog3PPiFBvdQAwUALyORz+w+mVjxOswXbyozKnnafISYKYklLqI2RuOjv5XbWwPBkiCAoA3MPPAaXdJ+i1JOHZhyXhKX8iFxXXpOfUyaU5rDvrlwp9GXyEGCgDexIaOjtBT1EkS7kmeUyNvJivKOXsya0gredY0gnBw8O/JdgZBEBEFBQBvobd1bb+kb5OEa0eLUaaJh8tclWlqkAwPa7p3+dfXe1t7HiEICgAOU2i0XNIoSbgl8fYq+e9ieplr/PdUK3Eib3F0jtFIwg/XEAQFAEdgc0v2GRl9giTck25qkGGBGYeu/izY5O7o39y46bJgB0FQAHCkx04q/Kik50nCsYOmNqnk+2oJwpVCdu4MmRqWbHbQs9X5wi3EQAHAUcg1BwetMdw+c/Gic3GdTBXTAovNTPWVnD2DINwcwiz/wRXBMDlQAHC0JWBR11ck/YwkHJP0lL6Y285FL2LzeG2zo37S35LdQAwUABzTEMdYG5klkixhuMU/e7q84zIEUSSJ4zNKnsa0PwdF1jNLZAznLAoAjvkuQHv347L6Okk41s3E1LMiFmOlF5C9m8eF+WJuUfcvSIICgIk6qApmpaQhknBsFHpCRslTqgkiZsnTq5U4nrsvDhrMy7CcOQUAE6nviu6dkm4iCfek59fL+IxEYyvDKU+pxgaCcHHbGPORR1q7XiAJCgAmmE2HH5PMNpJw7KQ3zVfqXJ5Ej0tq9gx51czAcNBf0uH024mBAoBJkGsORqVoJUm4J3lhnbxpPkFM9glrmq8kZcvV0f/Sje2Lx0iCAoBJ0t/a800ZPUwSjp38fKN0I9MCJ1u6qYGvW9w8Anr7Wrp/QA4UAEwya7xOSSFJuMU/rVqJE1iPfrIkTpgi/2Tew+CggjWmkxgoAIhBblHXryV9kSRcGwQdmprG+HQSopWY9ufsxrF35lq6fk8QFADEJGnCbkn7ScKxUeqstPwzphPERO/vZ9coMStNEO7Z5yX8jxADBQAxeqgl2G2l9SThnvRclqed0AFmylPq4jqCcJG12d5L1+wlCAoAYtYwEN4u6c8k4dgFq8pXihfUTJjURTNlqphh4eDV/w82E91FDhQAFMGGjmDcGi0nCfckz58hU8srao/5BFWbVPL9NQThYtH1zNJcc1AgCQoAiiTXkv2hpAdIwrmTozJzmRZ4rNILGmQ8Hvxzbv+Wvtu3KPsQSVAAUGRhQssk5UnCLf4p1fLfXkUQR5vf26vkv5Npfw4aL3haQQwUADhg82XZPxrpTpJwcATb1CAxgj2KM5M5lB2cY639+OZF2SdJggIAZyq5v07SHpJw7ACbmVLqTKYFHqnU+2vkzUwRhHtenGKjG4iBAgCHPPqB1S/L2rUk4eDFrLFeZgovrzlcJuMpdcFMgnBx20irN7YHAyRBAYBj6gdP/5yk35KEixc0pgUernRjvUyGU5ODftn0eHgPMVAA4KANHR2hp6iTJBy8C/C+Wm5pH84JaWZKSb4ycZH1ZDuDIIiIggIAR/W2ru23xn6HJFw70owyPNT21qN/Hpp01X29rT2PEAMFAI7zE9FySaMk4ZbE26vkv4tpbW+4376HaZNOMhoxoVlDEBQAlIBNlwZPW2s/SRJujnBNghHua64xCaN0IwsnOcmaG/su795OEBQAlIpMdL2k5wnCsQOuNqnkObUE8SrJ82fIY+lkFz2XNOlbiYECgBKSaw4OWmu7SMI9qYvrZKqYFvjX0X9VQqnzmSXh5uDfLH+o5dohkqAAoNRKQGv2Hkk/IwnHLngpT+mLud39f6Xn1/P6ZDf9JLeo65vEQAFASV5pjPWs7ZRkCcMt/tnTlZiVrvgcErPS8k9n2p+DIs/aThnDuYMCgFLV29azRVZfJwnHupmk9IJZkqngBwKNOfS2P3YHB/dP88Xetp6fkwQFAKV+MBfMSkl8j+fa6PeEjPxTKndaYPK0aUqcMIUdwT2DeZkeYqAAoAz0XdG9UzI3k4R7MvMbZPzKGwMb3yjVyHr/TrK67pHWrhcIggKAMjE6UPUxyWwjCccuhNN8pc6tvCfgUxfUyZvmswO45y8ZW3MbMVAAUEa2dCwbkaKVJOGe5IWVdTE003wlz2Pan5PbxpilG9sXj5EEBQBlpr+155syepgkHDvpVtjt8Er92qME9sTevpbuH5ADBQBlyhqvU1JIEo7dBaiQB+ISJ0yp6AcfHVYIw2gpMVAAUMZyi7p+bWS+RBKuDb7Kf0rcoamPDZU99dHZkYE+s/nynt8RBAUAZc43hS5JB0jCsdHxrLT8904r3/3u7BoWP3LTy14ysY4YKACoAA+1BLuNMetJwj3peeW5LO6h5Y+Z9ufm4F/Z3kvX7CUJCgAqxMwDhdsk+x8k4diFsspXanb5PSGfumgmL0By8/L/B6XDz5EDBQAVZENHMG6Mt5wk3JM8r7xejevVJpV8Xw0b1snrv12Waw4KBEEBQIV5ZcrPAyTh2F2AhFF6bvm8LTC9oEEmwYN/zu1n0nf729Y+SBIUAFSoMKFlkvIk4Rb/lGr5b68q+d8j8fYq+e9k2p+DxgueVhADBQAVbPNl2T/K2M+QhIMj56YGySvhkbNnlGlqYEO6Ofr/xOZF2SdJggKACpfPJwNJe0jCsYNzZkqpM6eX7OdPvb9G3swUG9I9L3qJ5A3EAAoA9OgHVr8sa9eShIMX0cZ6mUzpHaYm4yl1AdP+HB39r9502SrWAQEFAIfUD57+OUm/JQkupJVcXCrg4v+rpsfDe0gCFAD81YaOjtAYsRa4ixfTEruVXupfXZQxa2SXBEEQEQUoAPgv+lqyfUb6Lkm4dpSW1sN0Jf/wYvn6t97WnkeIARQAvP4O4YfXSBolCbeUynS6cpm+WHaMRkxoVhMEKAB4Q5suDZ621n6SJBwcWTu+oE65LWBUTqx0U9/l3dtJAhQAvLlMdL2kFwjCsYPV8SV1y20J4zLyXEqZW4gBFAC8pVxzcNBIXSThHldfqlOuLzEqi9G/tdc+1HLtEEmAAoDD8spUoZ+RhGMXWkdfq1uurzEuAz/JtWa/QQygAOCwBUEQedZ2SrKk4Rb/7BolZqWd+TyJWWn5753GhnHPoWPYGI5hUABwZHrberZIuo8kHLsLoEMPBMo48ECgMYceTmSzuLijfKm3refnBAEKAI7uHJI3KyTx/aFjEidMkX9K8acFJk+bpsQJU9gg7hksWC9LDKAA4Kj1XdG9UzI3k4R7MvMbZPzijb2Nb5RqZL1/J1ld90hrFzN5QAHAsRkdqPqYZLaRhFvMNF/J84r35H3ygjp503w2hHv+krE1txEDKAA4Zls6lo1Yo1Uk4Z5UkS7CZpqv1HlM+3N09L9sY/viMYIABQATItfS/Q1Jm0nCsbsARboNX+yvH/CGF/++/rbs9wkCFABMqDCynZJCknDLoQfxMrH9vMQJGSceQMRrD9FXjlGAAoCJtbm951dG5ksk4dptAKP0glmxTMU7NAVxlhtTEPHq0f+dmy/v+R1BgAKASeGbQpekAyThlrgW43FtESL81cteMrGOGEABwKR5qCXYLavrScI9k70cr6vLEEMysj29l67ZSxKgAGBS1Q+Gn5Lsf5CEYxeBKl+p8yfvyfzUxXVOvogI9g8H6o/7HDmAAoBJt6EjGDfGW04S7kmePzmv5PVqk0qeU0vATl7/7bKts6/KEwQoAIhFX0v3DyQ9QBKO3QVIGKXn1k/4v5te0CCT4ME/B6/+3+tvW/sgOYACgFiFCS2TxMjDMf4p1fLfXjVh/17i7VXy38m0PweNe6G/ghhAAUDsNl+W/aOsPksS7kk3NUjeBIzYPaNMUwOBujn6/2Tv5Wt4FgcUABRHPvTXStpDEo4d2DNTSp45/Zj/ndT7auXNTBGoe3YnEqmPEgMoACiaRz+w+mUrBSTh4F2AxnqZzNEf4ibjKXUB6/07ydjVmy5bxXocoACguBoGTvusMWIFMteuERlPqQuOft5+qrFeZgrT/pzbrtKvFmyJvkwSoACg6DZ0dISSOknCPan31xzVLXxvZkqpCfgKAZPRAExnEAQRQYACACf0tWT7jPRdknDtCDeHHgg8QhP2ECEm2n19Ld28lRMUADi2M/nhNZJ4D7lj/COcxjfR0wgxUSN/jZjQrCYIUADgnE2XBk8b6ZMk4Z70ggaZwxjRG29yFhLCBFz/I93cd3n3dpIABQBOGhtLXS/pBZJw7ECvTSr5/pq3/HOTtZQwjtlzvpf5GDGAAgBnPXblykEjdZGEe1IXzXzTl/mYKl+p2Uz7c5G19tqHWq4dIglQAOC0psfDeyT9jCTc8lav853s1wnjKC/+0pZca/YbJAEKAJwXBEHkWdt56NwFl/hn1ygxK/2a/56YlZb/3mkE5J4oYe0SGcOxBAoASkNvW88WSf9GEo7dBdChBwJl/uaBQGMOPSRIPC5usS/3tvX8nBxAAUBJsVG4QhLfWzomccIU+Sf/57RA/7RqJU6YQjDuGSzIdBMDKAAoObn24DlrxJPLDko3Ncj4RsY3Sjcy7c/R0f/6R1q7mFEDCgBK09iBqTdLYu6yawf+NF/J82YoeUGdvGk+gbjGmqcz0fRPEQQmtWISASbbwo0f+X+MMfeRhGPXmPFIJiEpwTjAwVPz3/e3dn+PHEABQMlrfuC6hyU1kQTwVs1Mff1t2b8jCEw2qj9iEUa2UxJvMAPe4lB55VgBKAAoD5vbe34loy+RBPBmg3/zmc2X9/yOJEABQFlJKlwj6QBJAK/rZeUL64gBFACUnYdagt2yup4kgNcysj25K4I9JAEKAMpS/WD4Kcn+B0kAf3vx1x8P1B/3OZIABQBla0NHMC5rriUJ4D9ZGy3dOvuqPEkg5uIJxK/5gfUPSLaFJAB9v781eyUxgDsAqAhhwi6VxIgHlW7cCxPcEQMFAJVj82XZP8rqsySBymY/2Xv5Gp6JAQUAlSUf+msl8dQzKtXuRCL1UWIABQAV59EPrH7ZyDLvGZU59rdas+myVayLAQoAKtPMgdM/Y4xY+QwVxUi/WvjTkJUxUez9ECiuSx687hJr1UsSqJgTrzEL+lq6N5MEuAOAitbXku2TLK8+RWVc/K3+jYs/KADAKxJ+tEzSGEmgvK/+GlFkVhEEKADAKzZdGjwt2U+RBMr6+h/p5r7Lu7eTBCgAwN8YH0uvl/QCSaBMPed7mY8RAygAwKs8duXKQRnbTRIoy9G/NSsearl2iCRAAQBex4It0Zet9HOSQDmx0pa+1q5/IwlQAIA3EARBlLB2yaFzJlAWIk+mU8awT4MCALyZ3raeLZIYLaFMmC/3tXb/jBxAAQAOg43CFZL4vhSlbrAgw3MtoAAAhyvXHjxnrG4hCZR0kZWuf6S1i5ktoAAAR2JkcOpNkpgzjRK9+punp0Q1nyQIUACAI7SlY9mItZZV01CajJZtbF/M6pZweBcFHNf8wHUPS2oiCZTO6F99/W3ZvyMIcAcAOAZhZDslRSSBUtllX9lnAQoAcCw2t/f8SjJfJgmUiM9uvrznd8QACgAwAZKmsFrSAZKA4162+TAgBlAAgAnyUEuwWzIfJQm4zBitzV0R7CEJUACACVQ/UPikZP+DJODkxV/644GZsz5LEqAAABNsQ0cwLnkrSAIuiqRlW2dflScJUACASdDf2v09yTxIEnDM93Ot2QeIARQAYBKFCbtUEiMtuGLcCxPXEgMoAMAk23xZ9o9W5nMkAScYfar38jU8mwIKABCHQiHRI4mnrVFsuxNe8npiAAUAiMmjH1j9spFdRxIoJmu1ZtNlq1ifAhQAIE4zB07/jDFixTUUhZF+1TB42pdJAhQAIGYbOjpCSZ0kgeI0ANP5yj4IUACAuPW1ZPskfZ8kELNv9LV0byYGUACAYg7EIi2TxHvXEdMOpxFrw1UEAQoAUOy7AO3Zv0j2UySBmArnzbm2YBtJgAIAOGB8LL1e0gskgUke/e/0vczHCAIUAMARj125ctBaZUkCk8raFQ+1XDtEEKAAAA5Z+NPwS1b6OUlgUq790pb+lux9JAEKAOCYIAiihLVLDp2rgQkVeTKdMoZ9CxQAwEW9bT1bjNU3SAIT7J6+1u6fEQMoAIDLQzUbXiuJ72kxUQYL8rqIARQAwHG59uA5Y3ULSWAiWOn6R1q7mGECCgBQCkYGp94kaTtJ4Niu/uZppUPWmAAFACgVWzqWjRhrVpMEjun679lrcs3BKEmgHBkiQDlb+MB1m400nyRw5Fd/9fW3Zf+OIMAdAKAERZFdIikiCRyh0JO3lBhAAQBK1Ob2nl9J5sskgSP02d62rt8SAygAQAlLmsJqSQdIAofpZZsPA2IABQAocQ+1BLutdANJ4LBYE+SuCPYQBCgAQBloGAg/Idn/IAm8GSP9caCh4TMkAQoAUCY2dATjkreCJPBmImnZ1tlX5UkCFACgjPS3dn9PMg+SBF6PtfYHudbsAyQBCgBQjjt85C2TxAgPrzaeiPzlxAAKAFCmetvX/EHSXSSBV43+b+u9fA3PiIACAJSzfMHPStpLEnjFbt9PrScGUACAMvfoB1a/bIzWkQQkycp2bbpsFetEgAIAVIKZB0670xj9jiQq3q8bBk7/EjGAAgBUiA0dHaGNItZ6r3SR7dzQ0RESBCgAQAXpb1vbK+n7JFGxvtHf3vMwMYACAFQgE2mZpDGSqLQNrxFrw1UEAQoAUKH62rN/kdFtJFFhrP1Yri3YRhCgAAAVbHw0dZ2kF0iiYkb/O5Nmys0EAQoAUOEeu3LloLXKkkTFjP5XPNRy7RBBgAIAQAt/Gn7JSj8niTK/9ktb+luy95EEQAEAJElBEESeMZ2HrhEoU5En0ylj2MYABQD4T30t3T+R9E2SKE9G5it9rd0/IwmAAgC8ho3C5ZL4frj8HEx4hS5iACgAwOvKtQfPGatbSKLMRv/GXP/jRcHzJAFQAIA3NDI49SZJ20miTFjzdJQqfJIgAAoA8Ka2dCwbkewakiiT0b+0PNccjJIE8JpjA8BrR43WLHxw/cNGmk8Ypbwd1dfflv07ggC4AwAcZjU2NorsEkkRYZSs0JPHGx8BCgBwZDa39/xK0j0kUbIl7nO9bV2/JQiAAgAc+QHie6slHSCJkvOyHS+sJQaAAgAcld5Lu1600g0kUWKsCXJXBHsIAqAAAEetYSD8hJGeJInSYKQ/DjQ0fIYkAAoAcEw2dATjkdEKkigNkbRs6+yr8iQBUACAY5ZryX5XVg+RhPOj/x/mWrMPkARAAQAm7mCxiaWSCiThrHFrtZwYAAoAMKF629f8QdLnSMJN1trb+tuyfyYJgAIATLh8wc9K2ksSztnt+6n1xABQAIBJ8egHVr8saz5CEm4xUvemy1axXgNAAQAmj80U7jRGvyMJZ/x65sBpXyQGgAIATKpcc1CwUcQa866IbOeGjo6QIAAKADDp+tvW9lprf0ASRffN/vaeh4kBoAAA8R081iyVNEYSRWI0Ym24kiAACgAQq7727F+stbeTRJFY3ZJrC7YRBEABAGKXH09/RNILJBH76H9n0mRuIgiAAgAUxWNXrhy0sj0kEffg36x8qOXaIZIAKABA0Sx8PPqirH5BErGN/h/PLer6OkEAFACgqIIgiIxnlkiypDH5g39jzRIZQ9YABQAovr6W7p9I+iZJTPbg39zT19r9M5IAKACAO0PTKFwuaZgkJs3BhFfoIgaAAgA4JdcePCfZW0hishqWPvrjRcHzBAFQAADnjA5U3yhpO0lM9MXfPG0z4ScIAqAAAE7a0rFsRLJrSGJiGWl5rjkYJQlgQo8rABM7WrVm4YPrHzbSfMKYgDhl+nOt3ZeQBMAdAMDxWm2sJ69TUkQYxyxMWNNJDAAFACgJfa1dvzQyXyGJY3ZXb1vXb4kBoAAApXMjwDerJA2QxFF72eZDllkGKABAaem9tOtFY8wNJHF0rLQud0WwhyQACgBQcmYeKHzcSE+SxBFf/v80WD/rTnIAKABASdrQEYzLmpUkcWSMscu2zr4qTxLAJB5nRABMvuaN1z0oo0UkcVgnpR/2tWavIAmAOwBA6R9oNrFUUoEk3lLeWi0nBoACAJSF3vY1f5Axd5HEW47+b+tvy/6ZJAAKAFA2UraQlbSXJN7Q7igdricGgAIAlJUHW4N9suYjJPGGo//uXHOwnyQACgBQdmymcKek35PEa/x65sBpXyQGgAIAlKVcc1CQjTpJ4lUi27mhoyMkCIACAJSt/ra1vUb6IUm8wmhDf3vPwwQBUACAChjxqlPSGEFo1EbhCmIAKABARehrz/7FWns7SehjubZgGzEAFACgYuTH0x+RtKtiAzDamTSZm9gTAAoAUFEeu3LloJEq9nW3NrKrHmq5dog9AaAAABWn6fHwbln9ogJH/4/nWrP3sgcAFACgIgVBEBnPLJFkK2nwb6xZImMsewBAAQAqVl9L908kbaicy7++0tfa/TO2PEABACpeaMxyScMV8Kse9BPhGrY4QAEAIGlzS/ezkm6tgNH/R3+8KHieLQ5QAAC8YnRg6g2SdpTxr/iMzYSfYEsDFAAAf2NLx7IRa0z53h63Wp5rDkbZ0oAbDBEALl0krWl+cP1mSfPK69pv+nOt3ZewgQHuAAB43UpurJG3RFJURr9VaBQtZeMCFAAAb6KvteuXRuYrZfQr3dXf2vMbtixAAQDwVjcCfLNK0kAZ/Cr7bT7sYYsCFAAAh6H30q4XZXVjyRcZmXW5K4I9bFGAAgDgMNUPhrca6cnS/Q3snw7UN9zBlgQoAACOwIaOYFzWrCzZ0b+xy7bOvirPlgQcPUaJAHBb88brHpTRohIb/f+ov7XnA2w9gDsAAI72ILWJpZIKJfSR87LmGrYcQAEAcAx629f8QdLnS2j0f3t/W/bPbDmAAgDgGKUUdkvaWwIf9SWbjq5jiwEUAAAT4MHWYJ+V3L+wGtudaw72s8UACgCAiZIO75D0e4c/4W/qD5x+NxsKoAAAmEC55qBgJWfX1LdWnRs6OkK2FEABADDRJaA1u8lIP3TugxltyLVlc2whgAIAYLJE6pQ05tAnGrVRuIINA1AAAEyivvbsX4z0aVc+jzX2llxbsI0tA1AAAEyysbHUOkm7iv5BjHYqFd3EFgEoAABi8NiVKweNVPTX7NrIrso1BwfZIgAFAEBMmh4P75bVL4o4+n8815q9ly0BUAAAxCgIgkgJ2ynJFmPwL9lOGWPZEgAFAEDM+hf1PCaj+4vwo7/a39LzU7YAQAEAUCShzDWShmP8kQd9L1xN8gAFAEARbW7pflbSrfH9RHPDjxcFz5M8QAEAUGSjA1NvkLQjhh/1jE0XPk7iAAUAgAO2dCwbsdZ2xTD6vzbXHIySOFD6DBEAZcJa0/zg+s2S5k3KPy/Tn2vtvoSgAe4AAHCqzhtr5C2RFE3Cvx4aRUsJGaAAAHBQX2vXL2X11UkY/X++v7XnNyQMUAAAuHpQJ72VkgYm8J/cH0ZeD8kCFAAADuu9tOtFWd04Uf+ekVn3SPual0gWoAAAcFz9YHirkZ489n/J/ulAfcMdJApQAACUgA0dwbi1WnXMo39jl22dfVWeRIHywzRAoIwtfGD9Q0b2sqM8O/x7f0v2clIEuAMAoOQafrRUUuEo/mpekZaRIEABAFCC+lt7npD0+SP/m/b2/rbsn0kQoAAAKFEphd2S9h7BX3nJpqPrSA6gAAAoYQ+2BvuMzPrDHvtbZXPNwX6SAygAAEpclC58WtLvD+OP/qZh8LQvkBhAAQBQBnLNQcFKb7mWv5WWb+joCEkMoAAAKJcS0JrdJNkfvdH/b6zuP/RnAFAAAJQVq6hT0tjr/F9jkQlXkxBAAQBQlncBgqck+5qlfY10y6H/DwAFAEBZykTROkm7/uY/7UpH4c0kA1AAAJSxje3BgIxd+5+jf7NiY3swQDIABQBAmVuwJfqCpK2StjY9XriXRAAAqBDN//6RBQv/ff3FJAFUpv8fGyHoAzvxHkoAAAAldEVYdGRhdGU6Y3JlYXRlADIwMjItMTItMTNUMDI6NDU6MDErMDA6MDANqutNAAAAJXRFWHRkYXRlOm1vZGlmeQAyMDIyLTEyLTEzVDAyOjQ1OjAxKzAwOjAwfPdT8QAAAABJRU5ErkJggg==;" parent="1" vertex="1">
          <mxGeometry x="-439.41" y="324.5" width="29.41" height="25.5" as="geometry" />
        </mxCell>
        <mxCell id="m9YZgxOKDFD2zi5w1zmE-25" value="" style="shape=image;verticalLabelPosition=bottom;labelBackgroundColor=default;verticalAlign=top;aspect=fixed;imageAspect=0;image=data:image/png,iVBORw0KGgoAAAANSUhEUgAAA/8AAAFxCAYAAAAlJxjXAAAABHNCSVQICAgIfAhkiAAAAAlwSFlzAAAI2gAACNoBH+sbpwAAABl0RVh0U29mdHdhcmUAd3d3Lmlua3NjYXBlLm9yZ5vuPBoAACAASURBVHic7N15fF1Vuf/xz9onU1um0gEEtVAQmVFkEkFARLkozlSUsQKmSdpiK22SVn8eB5qTFlotzUkjlElEDSqKV1RwxOmKF68MIjKUSUSgBSy0SZqc/fz+SJk7JXudrHP2+b5fr1LaJs/6tk2T8+w1gYiIiIiIiIiIiIiIiIiIiIiIiIiIiIiIiIiIiIiIiIiIiIiIiIiIiIiIiIiIiIiIiIiIiIiIiIiIiIiIiIiIiIiIiIiIiIiIiIiIiIiIiIiIiIiIiIiIiIiIiIiIiIiIiIiIiIiIiIiIiIiIiIiIiIiIiIiIiIiIiIiIiIiIiIiIiIiIiIiIiIiIiIiIiIiIiIiIiIiIiIiIiIiIiIiIiIiIiIiIiIiIiIiIiIiIiIiIiIiIiIiIiIiIiIiIiIiIiIiIiIiIiIiIiIiIiIiIiIiIiIiIiIiIiIiIiIiIiIiIiIiIiIiIiIiIiIiIiIiIiIiIiIiIiIiIiIiIiIiIiIiIiIiIiIiIiIiIiIiIiIiIiIiIiIiIiIiIiIiIiIiIiIiIiIiIiIiIiIiIiIiIiIiIiIiIiIiIiIiIiIiIiIiIiIiIiIiIiIiIiIiIiIiIiIiIiIiIiIiIiIiIiIiIiIiIiIiIiIiIiIiIiIiIiIiIiIiIiIiIiIiIiIiIiIiIiIiIiIiIiIiIiIiIiIiIiIiIiIiIiIiIiIiIiIiIiIiIiIiIiIiIiIiIiIiIiIiIiIiIiIiIiIiIiIiIiIiIiIiIiIiIiIiIiIiIiIiIiIiIiIiIiIiIiIiIiIiIiIiIiIiIiIiIiIiIiIiIiIiIiIiIiIiIiIiIiIiIiIiIiIiIiIiIiIiIiIiIiIiIiIiIiIiIiIiIiIiIiIiIiIiIiIiIiIiIiIiIiIiIiIiIiIiIiIiIiIiIiIiIiIiIiIiIiIiIiIiIiIiIiIiIiIiIiIiIiIiIiIiIiIiIiIiIiIiIiIiIiIiIiIiIiIiIiIiIiIiIiIiIiIiIiIiIiIiIiIiIiIiIiIiIiIiIiIiIiIiIiIiIiIiIiIiIiIiIiIiIiIiIiIiIiIiIiIiIiIiIiIiIiIiIiIiIiIiIiIiIiIiIiIiIiIiIiIiIiIiIiIiIiIiIiIiIiIiIiIiIiIiIiIiIiIiIiIiIiIiIiIiIiIiIiIiIiIiIiIiIiIiIiIiIiIiIiIiIiIiIiIiIiIiIiIiIiIiIiIiIiIiIiIiIiIiIiIiIiIiIiIiIiIiIiIiIiIiIiIiIiIiIiIiIiIiIiIiIiIiIiIiIiIiIiIiIiIiIiIiIiIiIiIiIiIiIiIiIiIiIiIiIiIiIiIiIiIiIiIiIiIiIiIiISLq40AFEvOnuzvDso3vQv34ykZuEuUkQvx7cjjgmEDMe57YBwGwMjhqwAkRrBn+OHiJbDawmtlU49zjwEMZDuMzDDNT+g5kz+8L9BkVERERERIZHzb+Up+7uDKse3g/iIzE7GMeBYPuAG1XEUQdw3Etsd+HcX4jjPxJv8xc9EBARERERkVKn5l/Kx4r2N9NrJxK5d2P2dmC70JHA+iC6DeznmP2Mp/puI5uNQ6cSERERERF5OTX/UrrMHB1thxFVfQziDwK7hY60Ze4piG+kEH+XmvG/pL6+P3QiERERERERNf9SeroW7sGATcXZqcAbQ8cZPrca7HrMrqCp9c+h04iIiIiISOVS8y+lIZutYmLth8GdC3YsuLR9bN6BYwU17hrOaX4udBgREREREaksaWuwpNysaN+WPjsbOJ+ynuXfamswu5qaaDHnNf8zdBgREREREakMav4ljK7c9lh0PnE8A9g+dJwRZ6zHcTV11W186rOPho4jIiIiIiLppuZfRtaiRWMYE88EPgM2NnSc8KwPYwVkcjTN/XfoNCIiIiKJLVo0hu0K4yhkdgDbHot3IHI7YLYDsD3mdsDZDuAGb24yq8Kx7Yb3zvDKG50KwJoN/98Hbh1YH47VGKtwrAZ7EsusIjPwBH3bPKhrmEU2Ts2/jAwzx/LcRzDXTmUs7x+qtTi3mLqeRUzN9oYOU1G6szWsGvWl0DHKh/sxjXN/GzqFiMhr5NumQbTbsN8/tj8yveWH/gKl1LIF43DRPkRud2LeSGSTMPcGsNfhGIcxDhgVMGEM9ijO3Y+5ByC+H+fuwOxWGlufCZir+Dpzp2LuLcmKxM/Q2NruJ5CUGjX/UnxLcwdRxTLg8NBRSp6xEotnM33ejaGjVIxFi8YwpvB86Bhlw9kFNLReHDqGiMgr5Nsmg7uXwVnj4fo3o3p310P4l1m2YC8ymcMxOxTYD9gfmBg41XAZcD9mtxJFt1Jwv6Npzv/hnIUO5k1H2zU4d1rCKg/R2LK7lzxScqpCB5AUuyJbR++oOcTWDNSEjlMWHJNx0Q/I576Hy5xPw5wnQ0cSEZGttOyiSVSt348d9/wZU6YUQsepKI7PYokaf4Cd6a07C+jyEamsdbS9B+euBcZhqemNHfAmnHsTZqcRGXS2/4t8+424+EbivptpymoyQFJNzb8UR/4rR7Cu6nKc7an1JcPyUSw+lnzbTBpbrwsdRkREXqZz0UQY2B+i/cH2J3b742w/GNiOOIK1d49icJ+yjIRLL9yJfjfVSy3jArq7L6v4hzfOjQfGhY4xAnYBOxdz5+Lq1tOZ+wkxK5gw+caK/xiQVFLzL351d2dY9cBsIIujOnSc8mbjwH2TfO4j9NU2MGvWs6ETiYhUlK7c9li8L7E7ANz+DC57PgArTBicRNwwI5qiVcNlqT8zE397zPdk9cqPAt2e6kn5qMH4II4Psmrlv8jnrgRbQWPrytDBRHxR8y/+dC7eldUrrwX39tBRknOPg70udIoNPkpN38EsbTuVma3/FzqMiEiq5XMzMHciLt6PApMgCp1INmdF+7b0WaPXmsZc1PxXul2AeeCaybddS5T5MtPm3hc6lEhS+oomfnTkjsL6/4iRgsYfwBaGTvAKjt2p4hY62z4VOoqISMpNwdlJ4CaFDiJboS+eBuzguerbWN5+gueaUp4y4M4gjv9OPncVHW17hg4kkoSaf0kun5uB4yawnUNH8cP9D3W1Pwmd4rVcLeaW09F2CdmsVu2IiEhlW7q0FtxnilLbrLkodaVcZYAzce5u8u25wY89kfKj5l+Gr7s7Qz63BLiYNG0hKcTZ0BE2y7l6Jo76EV257UNHERERCSaz7kwGl2f7ZxzPsgW6olherRqsmap1d9HRflzoMCJDpeZfhmfRojGsWvldoCl0FK8ctzCj9ZehY2yZHU/ML+lcvGvoJCIiIiMum41wfLaoY0SZ4taXcrYnzn5OZ24xXV064FrKhpp/Gbqu3PaMiX8MvC90FO8KfCl0hK1mHEC8/hYuW6z9ZyIiUlkmjPoI8ObiDmIfZfnCNxV3DCljEcYsCs/8kq4LS+WQaJHNUvMvQ5NvG0vsfgx2ZOgo3jl3M9NbbgkdY0gcb2B9/y/52qL9Q0cREREZMc7mjsAoEbFdMALjSHk7ikLmf1m+ICWHXkuaqfmXrXfZ4h3B3YzZYaGjFEV//xdDRxge25nq+Gcsv2jf0ElERESKbln78cChIzOYncUl7cU5V0DSZBfi6BcbPjZFSpaaf9k6S7Pb0d//38CBoaMUyY+Z+blbQ4cYPptAPHATX794r9BJREREisqN6En8tWSYOYLjSfkaRWQ36CBAKWXpOaFdiqcrO5q47oeYHRI6SnGYYXGZzvq/wkQG+m/k0vZjOa/5n6HDiIiIeLc8dxAxJ4zsoDaNFe0Xck7zcyM7bqo8D6zBWINjDbAG3DMv/bL1gVv3ynfZ8HPOHOZ2wFkN5sZgjMFZDTAW2BaYBJTK1XujcXYDnQtOpGHe70OHEXk1Nf+yedlsRKH2SuAdoaMU0fU0zf9r6BCevJF+fsySJccwa9azocNUFvdTiH8dOkXRxZTXuRgiki7GZwKMuj3rmQosDTB2eYviI/n3+j+RzcZFG8PMsWzh64hsNxy7AYPfx7wVx0HASJ/Gvw0WXc/S9oOZqckYKS1q/mXzJoxaCPah0DGKKKZQe2HoEH7ZPtT2XUd39n1Mya4PnaaC3EJja3voECIiqXXphTvRzyeCjG02k+7uDqZMKQQZv1wNRGuK2vgDOGfAvzZ8+8Mrfu2KbB19NW8ljk4EPgC8pahZXjKBKvsW2exxZLMDIzSmyBap+ZdN68zVY5byfW7WzYzZd4ZOUQTHsKruq0Bj6CAiIiJe9GcaCbe8ew9WPXgy8INA48twTM32An/c8O0L5NsmY+48HOcAE4o8+lFMHPUVoKXI44hsNR34JxuX/8oRxFwcOkZxWYGqmq+ETlFE59LZ9qnQIURERBK7IlsHTAuawdmsoONLco2tK2lqaWVg9BvA6oHHizugzdUVgFJK1PzLa1164U5Y9bdx1ISOUmTX8OnP3hs6RFEZX+OSr6T0oEYREakY60adBkwMmsF4J8sWHhw0g/gxc2Yfja1fZ23mTcAXgJ4ijeQoZC7GzBWpvsiQqPmXV8pmIwYy38BZyu+0tX5cXcr2+m+MqyWq+hZdue1DJxERERkWM0dk5yesshofDV4Ua/Y/TebMWUtjy5eIooOAXxVlDGdvZ3n7x4tSW2SI1PzLK02om41xbOgYxeeuoGHWQ6FTjAjHJAosDx1DRERkWDpzx2MckLQKcK2HNFO4pD3lEyQVaNrc+2hoPp7BVQDmvb5ZjqVLS+U6Qqlgav7lJR0XvgXIho5RfNZHtcuFTjHCPsryhWFOSBYREUnCoqSz7X1Y1AEZH1f11ZCxJg91pNQ4ZzS2fAmz0wDPtyW5SWTWfsRvTZGhU/Mvg7LZKlzm6xWwzx9wX+e8Crx3NY6XskKzFSIiUkaWLdgLZycmqmF8k6a5/6Zxzh34Wdo9jUWLxnioI6WoqfVbmJ0J+L2i0LlPe60nMgxq/mXQxLq5jNzdpwFZD5nai0KnCGR7+izlNziIiEiqRJlZJHu9asR89aUfOh+z/zuyTeF0D3WkVDW1fgdncz1XPYZ8+5s91xQZEjX/Al+/eC8q5Q5Sy+Spn1Xka11K2kfpyJ0cOoSIiMgWXbZ4R7AzE1a5mRktd774o/G7/wh4MGFNMM7XCe4p19B6MfATjxUdcI7HeiJDpuZfYKB/MVAXOsYIeJ7ILQkdIjz3Nbqyo0OnEBER2az1/fVAsq9X9qoVb1OmFIBliWoO2od87r0e6kgpK7hzgWf8FbST/NUSGTo1/5Wuc+H7gfeEjjEizC2lYc6ToWME5+z1xKN0VZGIiJSurq5qSHqwnruLxpabX/PTfbWXA88nqw04p6+laTej+V9gbR4r7kvXha/zWE9kSNT8V7LubA1xvDB0jBHyLC7+WugQJcPsAh3+JyIiJWvg6Y8Buyaq4eIlOPfaa9tmzXoWuCpR7UHvofPC/T3UkVK2tioP+Jo8chQyx3uqJTJkVaEDSECr687BsWfoGCPkqzS2ely2VfbG0Bd/HmgIHURkqy1ZsgN1616PZd4AjMXcDsBYHNsC2/PiA+14FM4VMLceZ2sxtx7secw9TeQewdwj1GT+ybmznw73mykzyy6aRBS/ESvsAm5nHBNxjMLchhPPbRtwz+PiASx6Dot7wT1GFD1OzD+p6X+c8+Y/EfY3IWXFuemJ3t94glF9125mgEvAGhnchz18cVQPzEhUQ0rbnDlryee+Blzop6C9G7jGTy2RoVHzX6muyNbRg+9TTEuUW81Aj4/9fWlzJpcvWcSnZq0MHUTkRdlsFTtV7w2Z/TH2A/bZ8G0S9I3BMi+97UYm9Db8AhiAvfT9C29vG/5/fQHyuWcx/ozjz8TcSibzR20NYkOjXzgW7GjgAGAfGNgWAPeyPunlf7Yv/IS5we9feDuLB1ur/gzkc73AIzgexdwDOO7E3J1QuEMPZ+UVli08GOIjE9Vw5Jma7d3krzc2/4N8+88g4TWCzp3FivZ5nNP8XKI6UuLs2+A8Nf/uID91RIZOzX+lWldXj0u4nK5cmF3MzOya0DFKj6ump3c+OnlWQunuzrD6vn2wqreBvQ1zh+DsICzhAV9bbwccJwAnEAFWiMm3/R5z36PgvsfM5n+OUI7wli04nEz0cYwPwsDkIo1SB+yFsRfY8S89PHCQb38U7A7gdnB/gvi3Zf1AoK/mXeTb1oeOAYBFj9HU/PfQMYYkE89gU8/2tk4PA3HnFt/K4q/hXLLmH7ZlPWfh5xBBKVWNrSvJ5/6Kn2ux34SZ2+iWFJEiU/NfiZYurcX1zCbhV9ayYO4J1kVbfgFQqRyfpHPJl2mY9VDoKFIh8m2TIfoA2ImsWnk0ZEa/YmY+rAjc0TiOpsqWkM/9AlwH43f/0YYTwtOlK7c9Bfs0uGnA5LBfEuwNwBuA9214IBCTz90B3Egc38Cq9X8mm41DJhySOPpx6AgvclwGnBc6xlZbumACxqnJirhvMHPeU1t8s8aWn9HZ/g8g2d3rsTVh1qFmLvVuxE/zP4ZLFu4KVM4DZikZOvCvElX1nApWGSeNOlvInDlrQ8coXS5D3DszdAqpAJe070K+7RZw94MtAd5L0iu8issB7wa7nlUPPEBH7vzB08dT4LLFO5LPLaLAI+AWAsWa6U8iYvBF9jyi6H+YWPcYHTmfJ25LqarKnEuy64eNTGHrrvUdbNYvSTDWhjrsTdfCdyeuI6XN7A5vtTK8yVstkSFQ81+RrFIOpnmc3prLQocoec59imULxoWOISlnhX5wR5P0cK0g3CQcX6XwzF0brkctT9lsFfncDNavvw+4ANgudKQh2Jmks7NS+rLZKpIfRPtT6ufds9Vvbb1XAcm3BlrSawml5Jm7y1stx27eaokMgZr/SnNJ27uAA0PHGBGOBcye3RM6RhkYjYumhg4hKTe4BPfZ0DES2guLf0Q+dz35trGhwwzJ8oVvYkLdH4GlwI6h4wyLsz+FjiBFNmHUhzZsAUnALR/Smzdln8f4VrIxAeP9dLbtlriOlK7qsfcCfrYfDd5SIzLi1PxXmohzQ0cYIY8wrveK0CHKyLmYleGMrJQV4/7QETz5ELjbyLe9LXSQrZLPnU4c34bjkNBRErHo1tARpMiixCsTH2H87kM/b8HZpQnHBciA0/W5aVZf3w8876VWrOZfwlDzX0m6LhqP4+TQMUaG+zJTsqVx0nI5cEymo/3o0DEk5Vxqmn+A3cH9no5c6X5ONXPkcxcC34Cyf6EZU8f/hg4hRbQ8dxDGOxPVcO6yYR3O2dh6G46/JBobwDiHxYtHJa4jpczTlY62jZ86IkOj5r+SxP1ngKsNHaPojPt5sueboWOUncg+FTqCpJzZfaEjeFaL4zqWLzgpdJDXGNzf/w1gXugonvxd96inXOymJ6zQzwArhv3e5mX2fxx1/QlvKpAS5+nqaDX/Eoaa/0pi7uOhI4yITPRlstmB0DHKj/uAZiykuFyaZv5fUEscfY+O9uNCB3mRmWNCXRfOnRY6ikda8p9mly3eEeyTCavcwIzmfw37vQf6rgWS3w7kLOlDDCll5unQ2kg9mIShD7xKcemi3cHeGjpG8bm/8+913wmdokxtw6i+E0OHkFRLY/MPUIez68i3lcaVeZ3tX8GRspU8puY/zdb3nUPiqz9taAf9vdrM7BqM5K8fjIPpyB2ZuI6UpghPM/bOz9kBIkOk5r9SDBROAZf+A92ML5LN+jmJtRLFnBI6gqRYIU7bsv+XG4dzP6AjG3YpZz73X0Br0AzF4NBJ/2nV3Z0B15iwyn00tPwicRbnfCz9hyjxFgYpVabmX8qbmv+K4T4QOkHROe7iqZ4fhI5R1px7L93ZmtAxJKUGr/v7T+gYRWMcALVtwca/9MKdMK4AT8tSS0cP0Y7+7teW0rLqwfdBwjvPnXXhnCXO0tj8PzjuTFzH7KN0LpqYuI6Ulu7uDHhq/s3XwYEiQ1MVOoCMgMsW78j6vrel7/Xgqxif16x/YtuyqubtwG9CB5GUMu7zeOXcc+CeBet/6ccMMHiyfTUwFtjB01hbx7lGOtu/QUPzyC9TX59ZgGOn4g9kD2PR33D8E2fPgnseizfcruJqwY0GqwXGAxOAnYE3ADsObzz3lw1XbEkq2bSEBXop2JU+kgBgXAosTVilhrhwNrAweSApGasemATOU+8Ua+ZfglDzXwn6178HXCZ0jCK7jYbmG2lsCZ0jBareg5p/KZbB6/62pvnvA/4O3A38A9zDED+GRY9RlXmKx59/dqsO9uzKjiaungzRm8EdjXEscCDFexoaYbacbPaQEX0YuSy3H46zilT9IcxuwPEjBvpuZWZ2eKddd100noGBvXG2P7h3gB0NbtIW389pv39qdS3cg0L83mRF7Dqmz1vtJxCAXQOuHUh2AK7j05gt8rIiQUpDZHsTe/rSYdHTfgqJDI2a/0oQ2wmp3+5v9gV9gfUlPgGYHzqFpNbGDv3rB+4A92fgVtzAn3mi/x4vt3bUZ9cBd2349j0AuhbsTSGqBz4FbJd4jNd6KxNHfQAYuW1Ijv8H+HzIa8CNxCxkesstXirWX7AK+N2Gb4OHs3W27YZxIriTgHcBYzbynuXY/P8fUCIr0ezh0Ak2KY4/TdItqOaSHfT3ao2tz5Bv+y64MxJW2oOuhe8GbvYRS0pAwb3Z22PjaOBeT5VEhkTNf0Vw7widoLjcH2hquSl0ihQ5kK7c9tS3pHdvtoQzuOwfYCXmrse5HzJq3Z+Zmu0dsQz18+4BZpFv+xK42cAsNt50Dp8xl5Fq/i+9cCf6+bDHij+hQDMzWpLvfd6ShtaHGHwQsJylS2vJrD0G5z4AnAqMA8DKcOZ/VO+RI/oxXY6WLq3F1iW8lcLuoKn1D34CvUzsLiMiafMPZp9GzX96OPdOT5UK1PWn9fYbKXFq/tNu8EVhaVw/VSyFOBs6QspEDNjhgB6oiH+x+zmReytNc/8aOgqNrc8An6ej7SqcuwI4ylttZ2+nc8E7aJj3e281N6U/OpvBMw6S6gXXSGPzFR5qDd3MmX0Mft65ie7sbJ6q/Si4qTS1rgySR4qrat0pDJ4LMXzO86z/C5qaf0u+/R4ceyeqY3yQjoU70zT3356SSSjd2RpWcbynag/r4aCEotP+066QOSJ0hKJy/JIZrb8OHSN1oujtoSNISs1o/ldJNP4v19R6P0/2HofDzzVfL7DoNK/1Nj3OBz1UWQ98JFjj/2pTsutpav0WTS3vCR1FiqYh4fs/T3/vN70keTXnjMgu81CpGhcnXN0gJeHpUccweJisD//wVEdkyNT8p13MwaEjFFXMV0JHSCVL+ceNyKtlswM0tHwax9c8Vv3whquhimdpdjucHZq8kP0/Glt+kryOyFZYnjsIODJhleuGffjk1ui3qxl8KJbUuWSzer1d7ga3cPjh7C/eaokMkZb9p53ZASk+7O+nNLX8rjil436MB4tTewNnrwfnY6luEdiBoROIBDFu8mdZtXJP4H0equ3MqoeOopi3Z1TVHU3yr+Uryey42Eccka0Su2mDZ0omqcGVXrJsysx5T9GZuwHjYwkr7c6E2vcAP/URSwLIt03GPJ6rUnDaVinBqPlPO+fS28SZfblotT/12UeBNxet/uVLJtPbd1fR6ie3K8sWjPN7fZJIGZgypcCyBWcRRXcxeD99QvG7KerVmbZv8lsL7evU1/d7iSOyJUuz24El3RLzAE3Nv2V6ka/3jW0FziVt/sG5etT8lzE3D3+3qayheuwfPdUSGTItQ0qzFe3bgr0hdIzisBtoav1z6BTD1tM7n1J/+OaifUJHEAli+rzVmJvhqZq/QwQ3ynl4SFml5f4ycqrqziDp3mnnrhqR630n7HEzuEc9VHo/l7Tv4qGOjLTOtmMZvBbWD+MXetgqIZV28yHJrKvejcz6FK75N4OqL4VOMWyDs/6fCB1jixy7MXgft2wVayKf+2joFH7YOhpbfV1pVJ4a536PzvY/A0n30x9Gd7aGKVkfe4c3JultLgNktvu7lyQiWyXxkv+YQuZqX2k2a8qUAh1tV+Lc5xNWqqKKc4DirVgU/zqy22DuUpIvr3qJM60AkaDU/KdZ1cCkpFvqSpP7Lo1z7gidYth6eufjXOn/23Nu99ARysyuG76lgHsudILgnDM629ow9/2ElUbz5Oj9gWId8LRdwvd/TrNQMmLyC4+GeP9ENRy/YvoFD3tKtGVx1RVkCvNJulrW7Fy6uxcwZUrBTzApqmy2Clf3bWBPj1V7gOs81hMZMi37TzXbLXQC/6xApqp8n5xfvmQyzpX+rD+A2aTQEUSCinb8b4wnkteJ9/WQZlO2Sfj+JXroqKSSs6TX+4EV+aC/V5sx50Hglx4qvZFVK0/0UEeKzcwxcdQl+Dn49eV1v09j6zNea4oMkZr/NDP3utARvDO+Tf0F94SOMWzlsNf/JdqfKJVtcEb8B4nrONs7eZhNsbqEBbahI5v0AYLIlnUumohZ0q1Ra8j0Jl2NM3SOFZ4q1XuqI8XSna2hs/1qsGneazuWeK8pMkRq/tPM4gmhI/hlBTKZBaFTDFs5zfoPGh86gEhwkd2cuIa54h2eaa4ncY2q0Tt5SCKyeXHhTKAmYZXrqM+u8xFnSOp6fwA87aHSSSxtf72HOlIMHQt3ZlXdz4DTvdc2bqax9TbvdUWGSM1/mjnGhY7g2ZVMm3tf6BDDVl6z/mCp+/gRGboo/oOHKsV7se9Ym7jGgL3VQxKRLTkncYWRXvL/gqnZXsyu8VApQzVTPdQR3/K503Hx34Bji1C9QIY5RagrMmRq/tPMsWPoCP5YH5nRbaFTDFvXwj3KbNY/ZR8/IsNUP/9xEs/4WTFn1tckruDsZA85RDatc8E7cCTd/nIfjc2/95JnODLuci91LD6HbFavv0tFfuEx5HO/AL4BRXrd46yLaS23F6W2yBDpk0+6jQ4dwBvjcurPfyR0jGEbKMyjnGb9AbDRmKXwqkiRIbs7lhE1qwAAIABJREFU2bu7Yjb/Kz3U+BidX0nJTRVSkizyMOvvrsK5cHcYTWu5HeN/kxdyk5hQ+57kdWTYrsjW0dH2cfJtt0D8a+BdRRxtNdW1Sa+KFPGmzJoRGRJzNQnv0i0VvUS1C0OHGLbLl0ymt6+8Zv0BcI7rvlgNFOt+cpHyYPwNx1EJKtSxon1bzmn2f4Wica+HG6hHY9WXYXZS0OZK0mlF+7b02SkJq8TQf7WXPEk4WwHukOR13HmA7nsfSVdk61hX+06c+xA9nIpj7IiMa8zm3Nk+zosQ8ULNf6pZ0oN1SoRbTsPsx0KnGLae3vk4V57/1p6iBjX/Uumcezjxg9T10SjAf/PvuNNPITuR/MIGIO+nnsgGffHHwSW7UcL4BU2fe9RTouHLuG9R4GKSr6w8mY6FO9M0998+YslGLM1uR2bU23DxYVj0TnrsWNwIr4g1umhqCf/QSuRlyrMhka2Vhvub1+Kii0KHGLauhXtQiMtw1n+D2u1S8gBJJAlLvq8+KiS9km/jrPe3uLp+fHy+d7aUfO5ZGluuTR5M5AUu+ZL/yF3lIUhy9S3/IZ/7LnBmwkrVRPHZQC55qArUlR3N+lE7kInGYwM749xEHK/H3CRgN7DJwJ5gETgIs6DpVgqjzw8xsMjmqPlPt/7QATxYRsOcJ0OHGLaBwryynfUH6FujWX8R+E/iCv1xcZr/puzzdOb+iPFOD9UywNV05Ko0WyVeLMvtBxyRsMpzRD3X+4jjhbkrcZa0+QfjHMzaU7/VJqKbfG64V5Juz+D5ZNsx+PlpG6CaApAxoABuw74ne/E/peBxbOBjzJzZFzqIyKuVb1MiW8GtL6FPhMOxhpqaJaFDDFvZ7vV/mQla8i8Cbk3yz6VR8VZimX0DnI/mHyCD4yo6cycz4M5nRvO/PNWVSpThnOQvQ+z71GfX+YjjxVM9v2Fi3UPAbgkr7cny3HHALxNnKm37hg4wohz/pBAfz/QS2KYishE67T/NnJV34+bc18r6kJSe3vmU9QM2M075QhpWj4gkFCdvPDKF4t2ckem7FnjWa03jY2TsbvLtn+GKbHFWLUi6dWdrME5PXCeOvuEhjT/ZbAz4WRlj7jwvdaRE2MOYHcP0efeGTiKyKWr+08xYGzrCsBlPE9nS0DGGrWvhHjhX3rP+uHWpX44okgaDs6LF+Hy5PdgSeuoeIJ+boYcAMiRPjfoAMCFhlcdY1fMrH3G8ykRX42dp5Yfpumi8hzoS3t3E1cfQ2Orj+lWRoinjWUnZMnsaD3dABeHcEuqbk++zDaXc9/oPWh06QHlx82hsbgudouJks1VMGD2eqH88ROOBcZgbBbbhVOdoNMTrsKiAYzVR4QnWZx6ldocnqK9Pz8oW612EqzsPeF0Rqu8CLKWnroV8rpPqwqWcN/+JIowjaeJIftAf7toNM+2lpX7uA3TmfuvhrI1aCgNnAot9xJJgrmZtppE5F5TvpJtUjHJvTmTzyrV5W0VtGV83lYa9/gCubD9+JI0WLRrD6MJBRO5gjP02nOa8B/BGiKuxzKve4YUHn8YrTnuOI6gyKDxj5HNPAI8CdwC34+xvUHVXWR4y2pR9no62WTj37SKOsgvwZfoznyef+y5GB00tfyjieFKuunJvpGDvSVynYKW15P8V7CovZ20Y52G2RCvtytI6cNNpbL4idBCRraXmP9Uyq6D0HphvkbNFnNPi/z7skdLTOz8Fs/5gav4loCVLdqB2/bFYfDzOHQeFvYEM5u31sQN23vDtUADMAQXI51aD3QXuDuBWsPJY7t7U+h062k7GudOKPFIN8EkcnySf+zvYVRSib+hwQHlRgbNJvrX0dma03OkhTXHURNfRZ0uBMYnqOPamc9FRwG+95JIR4n5KpjCL+nn3hE4iMhTl36DIpjl7vPwO+3ePE/V2hU4xbGmZ9QfAHgudQCrMZYt3ZH3fx4BPQt9RQObFa5xG1jhwxwDHDP6wjLZPFfoaqa47EOOAERpxH3A5MnYh+dxNYFcwvu+HTMmW94GzMnzZbARMTVzHuCZ5mCI6p/k58m3fB3dG8mKF81DzXx6Me8jEn2XavBtDRxEZDh34l2ruodAJhsxZrqSu9Bmqsj/h/+Xcw6ETSIXoyB1FPvc91q9/HFzXhsb71ev4ZWvMzK4hHngfMNKz8Bngv8B1s6ruUTpz7XS07TnCGaQUTKx9F8mvwSsQu2s9pCkux5WeCn2MJUt28FNLiuR+HI1UjT1Qjb+Us5Q0KbJRA1UPkymjyRfjUQZGXx46xrClatYfgIdCB5CUy7d/CKwFODx0lFRp+tyjLFtwHJG7CdykAAkmYszFuTl05n4JfJ1xvT/QaoAKYZydeLGM8cuy2EbyRN+vmVj7sId/Z6Oo6/sE0OkjlnjkuAVzS3iy54aSPHxSZIg0859m0ZoH8bhBtvjcAmbO7AudYthSNesPFOIHQ0eQlOpY+BbyuV+BXY8a/+KYPu9erHA0jpB7ph3G8Rjf4am6R8jn/h9LFyS9+k1KWVdue5z7SOI6kSvhg/5eJpuNMa72Uss420sd8eERzF1MHL2NhpZjaGz+gRp/SQs1/2nWlH2+bJZuGw8zoac8vthvzOVLJuNcmmb9YWDU30JHkJS5IltHZ+6ruPg24NjQcVKv6XOP8nzm7eC+EzoKjp2AL1IVPUy+vZNlC/YKHUmKYIApwKiEVdYS91zvI84IuRq8nLB0GMty+3moI8OzEscSovhIGpp3o6n5AqbP/UvoUCK+pWeWUjbO7C6c2y10jC1yjOWpujvpyBVzjH/Q2PKBotROywn/LzD3T2bNejZ0DEmRZbn96OVbI3gQnQDMmbMWOJV828/BLQa2DZxoFNg0oujT5HM34OKLaJj3+8CZxBfnZfb6+sHJizLR1Ho/+dzvgaMS13JuKnBB4jqyNR7A+A2R+zWR/Yb6lkde/JVp8wLGEimu9DQrsgnRHWDvD51iK2yHY7uijuBYW5S66dvrD5HdETqCpEg+9z6gG2N06CgVq7H1Mjrbfo65PPBfoeMwuPLwQ1j0IfK5X2HuyzQ1/yp0KEkg3/5msCMT13Elfsr/xpi7EmfJm3/sdLq6Wqmv709eSzZYC9wN3IHZ33DcSXV8J+fNfyJ0MJEQ1PynnUNLloqtt28eafu35CJ93Igfne2nYXYFUB06SsVraH0IOIlluQ8ScTGwR+BELzgOZ8eRz/2YOJ7N9Hn3hg4kw2CW/KA/eJxxk3/uIc3IKvRcR1XdUkj4gNOxE/3PnAT80EuudFsD9gy4Z4BncKwGHiO2h4l4BKJHiQYepX7+46GDipSSdDUs8lqZzB8o9BuBLstOvcFZ/0+GjuFdXPhD6AiSAoON/9XofJnSMr3lh3R13Ujh6akQfQ7sDaEjbfA+ougEOtraqNrxQs1+lpHu7gyrVnq4757RrFr5J/JF3AJYPH4OWM4wlVQ1/zYFWDnsd4+sh9j1ApCJeyhEvYzfYw1TphQ8BRSpKGr+067+glV05B7AofuWiyGNs/5YgYz7c+gUUuY6ckdhtgI1/qVpsLH+Ol1dVxA/82GMBkrjEMYanPsCA8+8j3z76TQ2/yN0INkKTz1wAs7t6qHS9sDbPNQpX8ZJXHrhTqlZlh67u5neogOERUqEXpRVAodmcYuha+EeQPpm/Z27g/qW/4SOIWVs2UWTcFwP1IaOIltQX99PQ0s3jS3HEcX7YbYMWBM6Fo5DwP5EPlcK5xPIlrjo7NARUqSagej00CFEJJ3U/FcCs5tDR0ilQtxK6mb9gdjp40WGz8wRDVwGjB+hAR8G91Oc5YEvYHwaF51MFB8JdgiZeB+wPcD2II7fDHYIcXwE2AkYH8C584HFwPeA24DyOWXct2nz7qapdQbWuyuOaRD84M/tgR+Rb5sWOIdsTr5tLNgHQ8dIFdPDFBEpjvQ1LvJatbU3s76vAC4TOkpqpHWvP4DZTaEjSBnrzJ0D7t1FHGEN2A8xfkxU9Ssa5jzptbqZozO3O7E7gIjDgFOAN3kdo9QNXrPWBXTRueAdWNQIfJQwKzky4PJ0tI2iqXVJgPFlS5w7FaMudIx0sf3pbD+MhuZbQycRkXRR818Jzp39NPnc/wKHh46SGqnc6w/Ac1SP/WPoEFKmlizZAfouKk5xdxcWX0xf7XeYPbunOGMAzhmDh1OtZPDQrfl0tJ2Nc1cUbcxS1jDv98Dv6Vw0CyucC25agAMCHc4tJt/+NI3NV43w2LIlxtmhI6SS2dmAmn8R8UrL/iuG3RA6QWqkda//oJ/qhG0Ztrq+aQwu1fbpAcxOpWHugTS1XlnUxn9THP8c8TFLTcOcJ2lsWcCTPZNx9jHg1yMfwrrItx8x8uPKJi1fsC9wWOgYKfUJFi8eFTqEiKSLmv9K4equA/NzDU2lS+tefwDcd0InkDK1dGktxkyvNY0uMr0H0tT6nQ0z8hJaNjtAQ+v3aGw5Dlc4ANxlwPoRGr0W7Jt0ZZPdpS7+xJmzQ0dIsR2o7ftQ6BAiki5q/itFw6yHcNFtoWOUvcuXTCa9s/7P0Vutw/5keKrXfRB4nadqBbAGmlqmUZ9d56mm+NYw/y4am8/DDUxm8NDEkTgscTKFui+OwDiyJdlsFZhOpS8qNzV0AhFJFzX/lSQ2zeomld69/gA/DLKkWtLBONlbJbNzaWxd7qmeFFvD5x6jseWz1NRMwuyLwHNFHvF8Ott2K/IYsiUT696Lvwd+sjGO4+nKvTF0DBFJDzX/lcTia8D6QscoW+me9YeBuDIPNJPkurszgK/72Ntoar3SUy0ZSefOfpqm1iwusyfQARTr/JBqLGotUm28bJFbl9qHxC/jzgqdoAJEDLgzQocQkfRQ819Jps9bDU4H/w1Xumf972NG6+9Ch5Ay9eT9hwDjPFS6jSd7v+ChjoQ0eDjgdKJoP7D/Ls4gdjZdF40vTm03kLhENCbd5xLk28aC+VrtI5vj7MzQEUQkPdT8VxorXBY6QllK9wn/4OxyHagmwxa5A7zUMWaSzSZvvKQ0TJt7H42tJ+Pc6cBqz9VrKAx83HPNFyRfsTDAGA85StnHgbrQISrEXixf8PbQIUQkHdT8V5qm+b/CcXvoGGUn1Sf8s5aCXRk6hJQx5/b1UOV2mlr+4KGOlJqG5m9SXdgPuMlz5WI9kE3e/FetT3fzb5Fmo0dSnNGft4h4kdZmRjbLLQVbETpF2bh8yWR6+9I7629uxeCWEJFhMvZLXMO56z0kkVJ13vwn6O4+iVUru4BzPFU9jI7sNjRlfd8y4OGsgqr0LvtftmAvnB3hodI/wN3hoU4Js0OB3TzU+ThLl36GmTN1bpOIJKLmvxKN6/kOq+q+gk7p3Trp3us/QG3mktAhpNzZzuCSlYjjP/nJIiVrypQC2eynmVi3A/BRDxWrcLVHAD/3UOslZmtxST+eU7zsP4rOIPE/eAA3l8bmdJ9DlG/7NLguD5XGkuk5Gfiuh1oiUsG07L8STcmuBy4KHaMspP2Ef+ybnHvBw6FTSLlz2yYuEXGPhyBS6rLZmIHeT4H5+bzj3CFe6ryy5rPJi9g2yWuUoGw2AvNx+vxqxvf81EOd0lZT+11gvZdaOvhPRDxQ81+pRvVeCjwWOkbJS/Wsv/VTXbUgdApJheSNTuSe8ZBDysHM7BqMZi+1zO3upc7LOUve/Dvb1UOS0jNh1DHgJiUv5K7bMBGRbufOfhrM11kXJ9K5aKKnWiJSodT8V6qp2V4cudAxSlraZ/2NKzlvzoOhY0gqJG/+x072vW9bStmEPb4LPJS4jpn/5h98PIh6o4capSfyNfvsrvVTpxy4b3kqVI3F6X1NIiIjQs1/JYvGXg7cGzpGyUr1rD/PU1X3ldAhJDWSz+A9c3ethxxSLqZMKeBj/7Jz/s+usWhV8iLR5OQ1SsyiRWMwH2c12MM0zPld8jplwnpvANZ5Kqal/yKSiJr/SlZf3w+FOaFjlKS0z/rj2qmf9XjoFJIaaxNXiMekc4+0bM6vk5cw/wfrxfwzeRF7S/IaJWZM4cNA8vM94FqcMw91ykNT9nlwP/JU7a1ckjvAUy0RqUBq/itd4/yfAOk/dGeo0j3r/xCjer4WOoSkSvLm38XpXCYtm5aJkh/yaBThSr3Cox6KvImObLoeaBl+Zp1j900vdcpJbL6W/kPG09+DiFQkNf8CNTWzgd7QMUpG6mf9mcXUrP6+xR/Hc4lrmO3pIYmUk3XVqxPXcPjfLlK93sPMPxGu7mgPdUrD0vbX4zjeQ6Xbmd7yNw91yks8+qf4OUsC4DS6uzOeaolIhVHzL3Du7Ptx6NT3F6R71v86Glt+HDqEpIx5OLgttrcnDyJlpeY/Ax6qeNpL/TL12XUYTySuY3aihzSlodpOx8trRqu8WX+AmTP7gO97qvY6Vq18j6daIlJh1PzLoCd6LwL+GjpGcOme9f8PmdoLQoeQNHIPJC/hfMwqSlmpGuuhSPJVJxvjSD477aIPp2aG1s+S/5iByN/y97Jj3/ZYTEv/RWRY1PzLoGx2gJipVPry/zTP+jtm6JA/KY74fg9F9iPf9jYPdaRcZKr39lDlPx5qvJbZXR6KvCEVM7QdbYcC+3iodAszm31sqShP4/f4FfBvT9U+SFdue0+1RKSCqPmXl0xv+RvOvhA6RjDpnvW/hoYWn7MOIi8T3eGnjvuMnzpSFuL4uMQ1nIdVJxsv7KH5ByANN+p4mmWu0CX/L5gypYBZt6dqoyjYKZ5qiUgFUfMvr/RE39fA/SJ0jCB6e1tJ46y/8SADvWqqpHgyO9yGn+XXn9Tsf4Xo6qoGd5qHSv/wUOO1jD94qnQcHW3lO/vfna3BuU94qNRHX913PdQpb87rtgct/ReRIVPzL6+Uzca46CzgsdBRRtTlSyZ7eiFaanqxwieYmV0TOoikWH19P/A7D5UicNeyot3HXeJSygaeaQSSX+8Ye9ibvzHTW/6Gw88Sdee6WJrdzkutkba69n3AOA+VfsysWc96qFPeGub+CXjQTzF3FPm2yX5qiUilUPMvr9Uw50kGBj4O1hc6yohJ66y/s5lMn/+X0DGkApjd7KnSXvTZDam7I72YOhe+n3zuMjrajyObLf2v653th+Fo81Appirzaw91Ns74madKu5EZ9S26szWe6g1Nvv3NmLlhva85P7PL5ip7yf8LnDOPB/85TwcxikgFKf0XCRLGzM/dCswKHWNEpHXW36yLhtYrQ8eQClETXwv0e6p2LFHdb1i+8E2e6qWbxccB5+Dsl0yse4R87mKWLTw4dKyNyi88BrMbgVGJaxl/of6CVclDbULMj7zVcnYSq+pu4LLFO3qruTld2dHk288in/st2D10tO879BoXjQdO8pDmWUb33OihTjoUnL+l/86dMewHOyJSkdT8y6Y1tl6GRUtCxyi6dM7638RTfZXx8EZKw3nznwCPzZJxMHH8f3S0falsl0yPGHf4y36wKzCbKL6Njtzf6Wz/PF0L9wiV7EUr2rcl356D+Gb8LCMHxw+91NmU6rE34u90doD3sr7vL+TbP+Sx5it1tB1KR245hbrHwa4EjgIgs+H7oYgLpwI+Vit8j6nZyr5J6OVmtNwJ3O6p2mQ6Fw3971ZEKlbaGh7x7al1rUyo2w3Hh0NHKYrLl0ymty9ds/6Ou4k4jWx2IHQUqTCRW05sH/FYcQzOfZ6quvPpaLuajF3LjnveypQpBY9jlLdstgrsrRv9NcfemH2Jgn2JfO5POH5AIbqJVev+SjYbj0i+ZQv2wrkm+uxswOdDnH4yhRUe671WfX0/HbkrcbT4K+omgV1PPvdnnC2nYD9k+rzVwy7Xna1h1ejDofBfEJ0Mtv9G387sHUDXkGrHdhY+5pS15P+1jGtwHOSp2JnAb/3UEpG0U/Mvm5fNxixefDaj1o/HODp0HO96e1vBpenfwUPUuJM4p7k4d1+LbM605pvpzN2C8U7PlbfDuenEbjqrVq6io+1nRNFPcHYXtb3/8D6r2NVVDf95IwN2EBEHYHas1/o+7VR7AMborXjLwzEOJ4rbmFj3JPn232DcThTfTcydPNW3MvEDge7uDE8+8npc/xFEvBNzxwD7gpcW8lXc96mf/7j/uq8exi4FdwH+Xy8dirlDidyldOb+CtyGcQ9mT+Oip8E9A4V1AFi0HS7O4NyO4HbGbCec2x1sf1axN8TVg3/EtrnfyDuGlG75gn2JOWTYv7sXh+WfPNnzm8R10iZ215KxHJBJXsxOYfHimcye3ZO8loikXZqaHimW2bN7WLToA4yJfwx2ZOg43qRt1t/cE1RXvZ9zPvuv0FGkgplrBvsDRWn4ABiPc6dhdhoG9NTF5HMPA/cCq8E9D/wHrAds3UvvFo19WY0I2P6lzFaFs/HgdgV2pfDMToDbYj9VEtxhw3iniWCn4DgFc4N/UxPr+snnnsLxb2L3byJ7EnO9wOCDROM5XDyAcw5zO4BlwG0HcS24NwK7sWrl64kYbESL++fWT6aQLeoIL2hsXUm+/Uqwc4s0QoRxMDB4RoN74YPOePGfkNvw/wYv/sHakP+AJ3NJ+y7MaN66rw9x5kwvf4nGt0dslUk5mdH8L/K5XwA+roHcntq+DwE+rxEUkZRS8y9bZ86ctVy2+COsX38TcGDoOF6katbfPUUN7+G8z94bOolUuMbm/yHfdg24M0ZoxAjYfcM3XtmwvPz5w2YaGffqty0jMYd5il4N7IKxC85e2WjCS39Gr/j5lzWoI8mxjPp594zYeNb/JVzV6UDdiI1ZDFV2FNC9xbfr7s6wauXpXsa0SEv+N8W5azDz0fyDi85Ezb+IbAUd+Cdb79zZT9NX+27gT6GjJJaqE/7dv+mP3st5zX8PnUQEgIybATwUOkZFcBy+5TdKlfvp782O6IhNn3sUWDyiYxZDbFu39P/pB9/F4MGRSf2Nprl/9VAnnZ6Pvg+s9VPMTqDrwtf5qSUiaabmX4Zm1qxnWZs5EfhV6CiJpOeE/0fIuOM4f85doYOIvKi+5T8YZwA6dLKYVrRvC+wTOsYI6iHiY8zMrhnxkQdGfwnsjhEf16fIbd2p8IX4LE8jXuupTjrNmbMW7PueqmUYyKRkQkNEiknNvwzdnDlryfR+GOyG0FGGJS2z/o7bydQeTf3cB0JHEXmNppbfYZxDGeyaL1u9HELlfB0vYDaVaS2+rkgbmpkz+4jcmcD6IOP7YBy04YHRpq1o3xbnfNzuYzhT878lxjXeakWc6a2WiKRWpbxoEN/qs+toaDkF574cOsqQpWHW37mb6e89nvpZxT/tWmS4mlquxrmZoWOkVmSVsuS/gHNTaWr9TtAU01pux3EWUK4H2GXo54jNvsX6+BTYqtsjtuT3NLQ+5KFOuj3V93PgMS+1jAPobNv4tZ8iIhuo+Zfhc85oaP4yjvPB+kPH2SrpmPXv4ImeDwZZ+ioyVA3Ny3A0oi0A/hmHho4wAp7H3BQamr8ROggADS3fBmsJHWPYCvHm9/2br4M6TQf9bY3BmxA8HtTnfG3ZEJGUUvMvyTW0dGKFE8CV/ix0ec/694I7j8aWWWSzaqSkfDS0dGL2PuDZ0FFSxTGca/7Kh3EP5g6jqdnXvmg/GlsXgZtHOW5p2dy+/8623YBjPIyyntiu81CnQmT8PdgyPkFXV7W3eiKSOmr+xY+mz/2BzMAROG4JHWWTjJ3LeNb/Pgo176Cx+arQQUSGpan1JmzgQBw/DB0lFS5p3wXj9aFjFMkAjiXQeyhNJXqLSWNzG45Tgd7QUYbEOIJsdhMPwKMz8HN348+YPm+1hzqVoXHOHR4Pk5zIwDMneqolIimk5l/8qZ//ONOaTwA+i5XkoUjjKcdZf7NvYr2HM2P2naGjiCTS9LlHaWj5EM4+AtwbOk55s3HAg6FTFMHvsOhQGlpm05R9PnSYzWpo6cbZkUA5XWf3OONGTXzNz5o5zPws+Tct+R8yc/5m/3Xwn4hshpp/8cs5o7HlEuKBY8H9I3Sc8uaewtnHaWqdWvIvgkWGoqH1esZP3hc4A+Oe0HHK0oyWO2lo3gMXHwV0AqtCR0rGfoOz42lsObqs7oZvaP0/MmMPA+YDPaHjbEI/uOvATqCheS9mNP/rNW+Rb3878CYPYz1HVd+PPNSpLLG7Fih4qWWcTL5trJdaIpI6av6lOGZ87n/J7HAw2PwSXQVQ6r7HQOEtNLReHzqISFFMmVKg8f+3d3chcl5lHMD/590km1TbarOlMUTMhxXqhdTa3igVqRQtBQsisQqCUmHJxgYaiUkqyFxIyUdN0Fg1QqlIvakVQfCrNOZGEWIJRVpRatpVaNlkk1Rr06TZnfd4sVup2NqkO7s7yf5+MMzNcM4zwzAzz5n3/M+2BzOy9b2p5aYkD6Z/m6fz0U3yl6T8OKV8LaV+MgPNu3N04k89n6mUmg13/y4j20YytHZFam5Mys6kPNHzuWbHiST70jYfyMj2j2TD9t/Md0FvyvDwREa23ZParE1yb5J+WKx9MSUPJ/lcUq/KyNb1Gdn+aEp5vZyCXv1b/NMMd17q0VgLx51bn0tNr97/g0k+3aOxgIvMhXcJNBeO4eGJJLvzzd2/zJLuvtT8/5RhkuSp1HpXNm5/ZL4LWTAGByeT070Ip+rPvcn9bqoZOZjkYL7V2ZjFgzenlluS3JJk5fwW97rGU/O3NBlNW6buU0bTbZ/J2SVPZ/PmuV/EWL++m+S307dt2bd7TRa1t6bWjye5Mcllc17Ta3s6pf4qtfwik5c8mk2bXp7vgnpm41fGkmzJt+/Zkab5bJJPZCpAb64C2EaT8khSf5ZlZw7kC51zzyNo0qSWmX8ONt3vzXiMBavuSZpehaJeMeMRav6e0oP3RJlwMtFcappDqVkyozFKO96jauhDvQh2gXPznR23JtmbZPU8V9KPXkwpezOxbNdF9WMYZmL/rnVp2xumj7S7NilXJ3VVZue7659JxpJg7mTkAAAEdUlEQVRyPKnjSTmW2h5N0xxP244nzVhqPZbTA6PZsuXULMw/ex56aCDHj1ybmg+naW5Ire/J1CXes70g8HxSn0gpj6XmsdR6KBu3/3WW5+wv+3dcnsny0ZT2+qR5f1KvS/K/e+7P3+nUPJnkj2lyKG09sOBeWwDOm+afubVnz7IMnt2YUr48HVi10J1JLd9Pt7szm+620gpv5IHO0pxaui4DWZWUobR1KCVDSVmcWt+WUv77e63mXymZTK01yfMp9WRqczKlnEi3PZlFkyezfHI86zsLb3vSfbtWpOTqpLsitbkyTZanbYeSLE9pliT1lX3DA3n1QkEtZ1PqKwsgL6RmPE09ntocT6ljaeuRDA4eyRc3n5zjZ3Rh2H/vULp1ZdJ9Z2pWpuTKpFyWqa2Yl//ncbXWlPKPpG2T5lhKHUttns1AnsvbV49OX+0BAOdM88/8uH/npTmbTanZ9KofmAtIfTmpD2RwYEfueI3wJQAAgB7S/DO/7uu8NWXw9qTcld4kDfe7F1LrD9MMfiMbNj8738UAAAALg+af/tDpLMpVg7elljuS3JSL7ySKx1Nyf9ozP3JsHwAAMNc0//Sf7+5dnfbs55P6mZSsme9y3rwynnR/krb+IF/66uH5rgYAAFi4NP/0t31fvz4Diz+VWm9Lybr5LucN1XI0qT9PqQ9naN1BgUwAAEA/0Pxz4di/a11q/VjaenNSPtgnQYEvJflDSg5kov46d257fPrccgAAgL6h+efC1Ok0GVp6TZr6odRyXZryvtR6TZK3zN6kdSKl/Dm1Ppk0h9N2f5/Fyw9neHhi9uYEAACYOc0/F49Op8k7LlmTiYm1GRhYnba8K6VdlZQrUspQah1KyvQZynVZkqVJnUiaqQC+mlNp6onUjCc5kTRjSTuaZDTNomdSLn1Kow8AAAAAAAAAAAAAAAAAAAAAAAAAAAAAAAAAAAAAAAAAAAAAAAAAAAAAAAAAAAAAAAAAAAAAAAAAAAAAAAAAAAAAAAAAAAAAAAAAAAAAAAAAAAAAAAAAAAAAAAAAAAAAAAAAAAAAAAAAAAAAAAAAAAAAAAAAAAAAAAAAAAAAAAAAAAAAAAAAAAAAAAAAAAAAAAAAAAAAAAAAAAAAAAAAAAAAAAAAAAAAAAAAAAAAAAAAAAAAAAAAAAAAAAAAAAAAAAAAAAAAAAAAAAAAAAAAAAAAAAAAAAAAAAAAAAAAAAAAAAAAAAAAAAAAAAAAAAAAAAAAAAAAAAAAAAAAAAAAAAAAAAAAAAAAAAAAAAAAAAAAAAAAAAAAAAAAAAAAAAAAAAAAAAAAAAAAAAAAAAAAAAAAAAAAAAAAAAAAAAAAAAAAAAAAAAAAAAAAAAAAAAAAAAAAAAAAAAAAAAAAAAAAAAAAAAAAAAAAAAAAAAAAAAAAAAAAAAAAAAAAAAAAAAAAAAAAAAAAAAAAAAAAAAAAAAAAAAAAAAAAAAAAAAAAAAAAAAAAAAAAAAAAAAAAAAAAAAAAAAAAAAAAAAAAAAAAADD//g1NiK5dl7SgcAAAAABJRU5ErkJggg==;" parent="1" vertex="1">
          <mxGeometry x="178.41999999999996" y="315" width="83.16" height="30" as="geometry" />
        </mxCell>
        <mxCell id="m9YZgxOKDFD2zi5w1zmE-44" value="" style="edgeStyle=orthogonalEdgeStyle;fontSize=12;html=1;endArrow=blockThin;endFill=1;rounded=0;strokeWidth=2;endSize=4;startSize=4;dashed=1;dashPattern=1 3;strokeColor=#4284F3;entryX=1;entryY=0.5;entryDx=0;entryDy=0;startArrow=classicThin;startFill=1;exitX=0.5;exitY=0;exitDx=0;exitDy=0;" parent="1" source="m9YZgxOKDFD2zi5w1zmE-22" target="m9YZgxOKDFD2zi5w1zmE-20" edge="1">
          <mxGeometry width="100" relative="1" as="geometry">
            <mxPoint x="-470" y="280" as="sourcePoint" />
            <mxPoint x="-220" y="160" as="targetPoint" />
          </mxGeometry>
        </mxCell>
        <mxCell id="m9YZgxOKDFD2zi5w1zmE-65" value="Architecture: Firebase + API Gateway + Cloud Run" style="fillColor=#4DA1F5;strokeColor=none;shadow=1;gradientColor=none;fontSize=14;align=left;spacingLeft=50;fontColor=#ffffff;whiteSpace=wrap;html=1;" parent="1" vertex="1">
          <mxGeometry x="-410" y="80" width="720" height="20" as="geometry" />
        </mxCell>
        <mxCell id="yLJDRetQdk5FhjVTlQ1a-1" value="" style="rounded=0;whiteSpace=wrap;html=1;fillColor=none;dashed=1;" vertex="1" parent="1">
          <mxGeometry x="-260" y="110" width="530" height="250" as="geometry" />
        </mxCell>
        <mxCell id="yLJDRetQdk5FhjVTlQ1a-2" value="Step1" style="text;html=1;align=center;verticalAlign=middle;resizable=0;points=[];autosize=1;strokeColor=none;fillColor=none;" vertex="1" parent="1">
          <mxGeometry x="270" y="330" width="50" height="30" as="geometry" />
        </mxCell>
      </root>
    </mxGraphModel>
  </diagram>
</mxfile>
